<svg xmlns="http://www.w3.org/2000/svg" viewBox="0 0 446.43 424.35"><defs><style>.cls-1{fill:#ebebeb;}.cls-2{fill:#e0e0e0;}.cls-3{fill:#f5f5f5;}.cls-4{fill:#fafafa;}.cls-5{fill:#fff;}.cls-6{fill:#263238;}.cls-7{fill:#28e07b;}.cls-8{fill:#455a64;}.cls-9{opacity:0.4;}.cls-10{fill:#b78876;}.cls-11{fill:#aa6550;}.cls-12{opacity:0.3;}</style></defs><g id="Camada_2" data-name="Camada 2"><g id="Background_Complete" data-name="Background Complete"><path class="cls-1" d="M75.89,325.87h46.3a5.9,5.9,0,0,0,5.9-5.9V305.71a9.94,9.94,0,0,0-9.94-9.94H75.55Z"/><path class="cls-1" d="M121.42,334.84h-91a4.48,4.48,0,0,1-4.48-4.48h0a4.48,4.48,0,0,1,4.48-4.49h91a4.49,4.49,0,0,1,4.48,4.49h0A4.49,4.49,0,0,1,121.42,334.84Z"/><path class="cls-2" d="M11.83,206.35l50.08-.89L93.7,325.61l-67.8.68L.34,221A11.82,11.82,0,0,1,11.83,206.35Z"/><polygon class="cls-1" points="36.77 334.84 21.79 421.93 25.89 421.93 45.6 334.84 36.77 334.84"/><polygon class="cls-2" points="72.1 334.84 56.18 421.93 60.28 421.93 80.92 334.84 72.1 334.84"/><polygon class="cls-1" points="111.17 334.84 128.94 421.93 124.83 421.93 102.35 334.84 111.17 334.84"/><path class="cls-1" d="M56.18,205.46,81,325.74h19L80.1,219.46a17.13,17.13,0,0,0-16.83-14Z"/><rect class="cls-1" x="133.07" y="245.87" width="68.55" height="3.33" transform="translate(334.68 495.07) rotate(180)"/><polygon class="cls-1" points="212.24 249.2 225.09 201.02 171.57 201.02 159.93 249.2 212.24 249.2"/><polygon class="cls-2" points="163.14 245.56 210.95 245.56 222.08 203.25 174.02 203.25 163.14 245.56"/><rect class="cls-3" x="119.49" y="259.07" width="3.46" height="165.28"/><rect class="cls-1" x="122.95" y="259.55" width="3.46" height="164.8"/><rect class="cls-1" x="332.76" y="259.07" width="3.46" height="165.28"/><rect class="cls-2" x="336.22" y="259.55" width="3.46" height="164.8"/><rect class="cls-2" x="104.54" y="249.47" width="262.95" height="13.56"/><rect class="cls-1" x="218.73" y="263.03" width="115.76" height="22.44"/><path class="cls-2" d="M281.77,272.7a2.58,2.58,0,1,1-2.58-2.58A2.58,2.58,0,0,1,281.77,272.7Z"/><rect class="cls-2" x="3.85" y="94.56" width="144.1" height="6.42"/><rect class="cls-2" x="27.44" y="97.65" width="5.85" height="21.91"/><rect class="cls-2" x="114.77" y="97.65" width="5.85" height="21.91"/><path class="cls-1" d="M93.33,39.22c.24-.23,1.84.94,3.94,3.34a37.14,37.14,0,0,1,3.35,4.49A42.8,42.8,0,0,1,106,59.69a38.37,38.37,0,0,1,1,5.55c.29,3.2,0,5.18-.3,5.19-.75.06-1.44-7.68-5.17-16.26S92.78,39.74,93.33,39.22Z"/><path class="cls-1" d="M109.18,76.86c-.32,0-1.23-4.19-2.07-11.13s-1.56-16.57-1.84-27.21-.16-20.28,0-27.25S105.85,0,106.2,0s.66,4.31.9,11.27.42,16.57.7,27.18.69,20.18,1.09,27.12S109.55,76.81,109.18,76.86Z"/><path class="cls-1" d="M124.52,16.36c.32.18-1,3.14-2.73,8.08s-4,11.84-6.09,19.55S112,58.77,111,63.92s-1.4,8.36-1.78,8.35-.58-3.33,0-8.63a136.06,136.06,0,0,1,4.07-20.34,136.08,136.08,0,0,1,6.87-19.54C122.32,18.91,124.24,16.19,124.52,16.36Z"/><path class="cls-2" d="M89.45,68v8.47A18,18,0,0,0,107.3,94.56h0a18,18,0,0,0,17.85-18.08V68Z"/><path class="cls-4" d="M125.48,75.17c0,.15-8.07.26-18,.26s-18-.11-18-.26,8.07-.25,18-.25S125.48,75,125.48,75.17Z"/><path class="cls-4" d="M125.48,77.53c0,.14-8.07.25-18,.25s-18-.11-18-.25,8.07-.26,18-.26S125.48,77.38,125.48,77.53Z"/><rect class="cls-2" x="37.7" y="50.19" width="8.01" height="39.34" transform="translate(111.34 27.78) rotate(89.7)"/><rect class="cls-3" x="37.94" y="66.51" width="12.44" height="43.84" transform="translate(132.37 43.8) rotate(89.7)"/><path class="cls-2" d="M57.67,94.45a47.4,47.4,0,0,1-.21-6.22A47.53,47.53,0,0,1,57.67,82a44.49,44.49,0,0,1,.22,6.22A44.37,44.37,0,0,1,57.67,94.45Z"/><path class="cls-2" d="M59.52,94.45a44.37,44.37,0,0,1-.22-6.22A44.49,44.49,0,0,1,59.52,82a47.53,47.53,0,0,1,.21,6.22A47.4,47.4,0,0,1,59.52,94.45Z"/><path class="cls-2" d="M28.87,94.45a47.4,47.4,0,0,1-.21-6.22A47.53,47.53,0,0,1,28.87,82a44.49,44.49,0,0,1,.22,6.22A44.37,44.37,0,0,1,28.87,94.45Z"/><path class="cls-2" d="M30.72,94.45a44.37,44.37,0,0,1-.22-6.22A44.49,44.49,0,0,1,30.72,82a47.53,47.53,0,0,1,.21,6.22A47.4,47.4,0,0,1,30.72,94.45Z"/><path class="cls-2" d="M34.73,88.43c0-.12,4.43-.21,9.88-.21s9.88.09,9.88.21-4.42.22-9.88.22S34.73,88.55,34.73,88.43Z"/><rect class="cls-1" x="51.51" y="50.66" width="8.01" height="54.1" transform="translate(132.93 21.79) rotate(89.7)"/><ellipse class="cls-2" cx="74.84" cy="77.99" rx="2.56" ry="2.59"/><rect class="cls-2" x="48.9" y="59.88" width="1.6" height="36.22" transform="translate(127.69 28.29) rotate(90)"/><rect class="cls-2" x="360.8" y="16.97" width="71.66" height="103.87"/><rect class="cls-3" x="357.21" y="16.97" width="71.66" height="103.87"/><rect class="cls-5" x="366.11" y="28.22" width="53.86" height="81.37"/><path class="cls-2" d="M420,109.6s0-.14,0-.4,0-.65,0-1.16c0-1,0-2.52,0-4.46,0-3.9,0-9.58,0-16.76,0-14.35-.06-34.67-.09-58.6l.18.18-53.85,0h0l.2-.2c0,30.7,0,59,0,81.38l-.16-.16,39.2.08,10.83,0,2.84,0c.65,0,1,0,1,0h-1l-2.82,0-10.79,0-39.3.08H366v-.15c0-22.38,0-50.68,0-81.38V28h.2l53.85,0h.18v.17c0,24-.07,44.34-.09,58.72,0,7.16,0,12.83-.05,16.72,0,1.93,0,3.41,0,4.43,0,.49,0,.86,0,1.13S420,109.6,420,109.6Z"/><path class="cls-2" d="M429.07,17a11.37,11.37,0,0,1-1.28,1.86c-.83,1.11-2,2.63-3.36,4.27s-2.61,3.08-3.54,4.11a11.72,11.72,0,0,1-1.58,1.61A14.42,14.42,0,0,1,420.68,27l3.45-4.18,3.45-4.19A13.73,13.73,0,0,1,429.07,17Z"/><path class="cls-5" d="M420.24,109.33a66.54,66.54,0,0,0,9.39,11.75"/><path class="cls-2" d="M429.63,121.08a10.84,10.84,0,0,1-1.63-1.49,52.9,52.9,0,0,1-3.55-4c-1.3-1.64-2.38-3.19-3.12-4.34a10.85,10.85,0,0,1-1.09-1.93,15.62,15.62,0,0,1,1.32,1.77c.79,1.11,1.9,2.63,3.2,4.25s2.53,3,3.44,4.05A14.48,14.48,0,0,1,429.63,121.08Z"/><path class="cls-5" d="M357.2,120.76l9.38-11.58"/><path class="cls-2" d="M366.58,109.18A69.36,69.36,0,0,1,362,115.1a72.65,72.65,0,0,1-4.84,5.66,72.2,72.2,0,0,1,4.54-5.91A71.78,71.78,0,0,1,366.58,109.18Z"/><path class="cls-2" d="M357.21,17a69.05,69.05,0,0,1,4.55,5.45A61.74,61.74,0,0,1,366,28.11a64.84,64.84,0,0,1-4.55-5.45A62.39,62.39,0,0,1,357.21,17Z"/><rect class="cls-2" x="385.15" y="44.75" width="18.03" height="51.2"/></g><g id="Floor"><path class="cls-6" d="M446.43,422.77c0,.14-99.87.26-223,.26S.33,422.91.33,422.77s99.85-.26,223.06-.26S446.43,422.62,446.43,422.77Z"/></g><g id="Plant"><path class="cls-7" d="M373.18,336.19c9.61,3.36,22.16.36,30.39-5.65s14.15-14.62,19.39-23.35c2.24-3.73,4.43-7.61,5.14-11.9s-.34-9.12-3.66-11.92c-5.17-4.35-13.09-2.14-19,1.2a65.39,65.39,0,0,0-32.29,51.62"/><path class="cls-7" d="M383.5,359.21c5.78,7.62,15.7,11,25.26,11.45s19-2.19,27.91-5.62c3.24-1.24,6.79-3,7.9-6.23a8,8,0,0,0-1.69-7.36,16.59,16.59,0,0,0-6.45-4.39c-8.79-3.74-18.86-3.92-28.1-1.52S391,353.3,383.5,359.21"/><path class="cls-7" d="M373,295c8,.16,14-6.81,17.59-13.91a51.6,51.6,0,0,0,4.74-32.16c-.73-4.07-2.27-8.46-5.91-10.42s-8.51-.67-11.61,2.16-4.8,6.87-6,10.88c-4.28,13.83-3.36,29.73,1.23,43.45"/><path class="cls-7" d="M346.88,339c13.58-23.1,15.84-51.37,7.82-76.94-1.3-4.15-3.75-8.89-8.09-9.17-4.8-.3-7.82,5.06-9.14,9.68-4.66,16.24-3.67,33.48-2.64,50.34.64,10.39,4.2,19.27,12.05,26.09"/><path class="cls-7" d="M332.77,348.52a55.56,55.56,0,0,0-32.94-34.93c-3.61-1.35-8.19-2.13-10.88.63s-1.83,7.23-.13,10.61c2.73,5.45,7.17,9.84,11.59,14,4,3.83,8.2,7.67,13.28,9.9s14.43,2.79,19.08-.25"/><path class="cls-6" d="M416.93,289.17l-.24.21L416,290l-2.84,2.13-2.07,1.52c-.74.57-1.52,1.24-2.37,1.93-1.68,1.4-3.66,2.91-5.66,4.81l-3.2,2.91c-1.11,1-2.17,2.17-3.33,3.3-2.33,2.25-4.59,4.87-7,7.58a149.21,149.21,0,0,0-24.81,40.14c-1.33,3.39-2.67,6.59-3.63,9.68-.51,1.54-1.06,3-1.47,4.45l-1.17,4.16c-.81,2.64-1.27,5.09-1.78,7.22-.23,1.07-.48,2.06-.66,3s-.31,1.77-.44,2.53c-.27,1.48-.48,2.65-.63,3.5q-.12.54-.18.9a1.31,1.31,0,0,1-.09.31,1.54,1.54,0,0,1,0-.32c0-.24.07-.54.12-.91.12-.86.29-2,.51-3.52.12-.77.25-1.62.39-2.54s.39-1.93.61-3c.48-2.14.91-4.61,1.69-7.26.36-1.34.74-2.74,1.14-4.19s.94-2.93,1.43-4.48c.95-3.11,2.27-6.33,3.6-9.74A146.32,146.32,0,0,1,389,313.74c2.45-2.7,4.74-5.32,7.1-7.56,1.16-1.14,2.24-2.28,3.36-3.29l3.24-2.89c2-1.88,4-3.37,5.74-4.75.86-.68,1.65-1.33,2.41-1.89l2.1-1.49,2.92-2,.76-.51C416.83,289.21,416.92,289.16,416.93,289.17Z"/><path class="cls-6" d="M434.91,353.21a5.3,5.3,0,0,1-.94-.15c-.6-.11-1.48-.35-2.64-.54a72.76,72.76,0,0,0-74.13,30.85c-.68.95-1.13,1.74-1.48,2.25a4.78,4.78,0,0,1-.55.77,5.21,5.21,0,0,1,.43-.84c.32-.53.74-1.34,1.39-2.32a66.54,66.54,0,0,1,5.94-8,70.59,70.59,0,0,1,58.6-24.38,65,65,0,0,1,9.85,1.41c1.15.23,2,.5,2.62.65A7,7,0,0,1,434.91,353.21Z"/><path class="cls-6" d="M384.77,247.72a2,2,0,0,1,0,.36c-.06.27-.13.61-.22,1-.21,1-.51,2.29-.89,4-.78,3.45-2,8.44-3.47,14.58-3,12.3-7.34,29.24-11.87,48-2.25,9.39-4.28,18.36-6,26.54S359,357.78,358,364c-.59,3.11-1,5.94-1.45,8.42s-.75,4.61-1,6.36-.47,3.06-.62,4c-.08.43-.14.77-.18,1a1.8,1.8,0,0,1-.09.36,1.94,1.94,0,0,1,0-.36c0-.28.07-.62.12-1.06.12-1,.29-2.32.51-4s.51-3.9.9-6.39.79-5.32,1.35-8.43c1-6.25,2.46-13.65,4.15-21.85s3.75-17.17,6-26.57c4.53-18.77,9-35.69,12.05-48L383.37,253l1-3.94c.11-.43.2-.76.28-1A1.4,1.4,0,0,1,384.77,247.72Z"/><path class="cls-6" d="M353.6,382.36a1.09,1.09,0,0,1-.09-.28c-.05-.23-.11-.5-.19-.83l-.66-3.22c-.58-2.79-1.34-6.85-2.21-11.88-1.74-10-3.81-24-5.08-39.53-.61-7.77-.95-15.18-1.1-21.93s-.06-12.83.15-17.93c.07-2.55.24-4.85.35-6.87s.24-3.77.37-5.19.23-2.47.31-3.27c0-.34.06-.62.09-.85a1.76,1.76,0,0,1,0-.29s0,.1,0,.3,0,.51,0,.85c0,.8-.1,1.9-.18,3.28s-.2,3.16-.27,5.18-.21,4.33-.24,6.88c-.16,5.09-.17,11.16,0,17.9s.54,14.13,1.15,21.88c1.27,15.5,3.26,29.45,4.88,39.52.82,5,1.51,9.1,2,11.9.23,1.37.42,2.45.55,3.24.05.34.09.62.13.85A1.27,1.27,0,0,1,353.6,382.36Z"/><path class="cls-6" d="M354.6,385.29a4.19,4.19,0,0,1-.35-.79l-.89-2.33c-.2-.51-.41-1.07-.64-1.68l-.87-1.95c-.32-.7-.65-1.45-1-2.25s-.8-1.59-1.23-2.46-.91-1.75-1.39-2.69l-1.65-2.84c-1.09-2-2.5-4-3.86-6.13a143.83,143.83,0,0,0-10.23-13.06,160.52,160.52,0,0,0-11.73-11.75c-1.95-1.64-3.74-3.29-5.54-4.67l-2.57-2.05-2.44-1.79c-1.54-1.17-3-2.15-4.26-3s-2.37-1.61-3.3-2.16l-2.1-1.34a4.25,4.25,0,0,1-.71-.5,4.81,4.81,0,0,1,.78.39l2.16,1.24c1,.52,2.08,1.22,3.36,2.07s2.77,1.78,4.33,2.93l2.48,1.77,2.6,2c1.82,1.36,3.63,3,5.6,4.64A151.81,151.81,0,0,1,333,348.68a138.66,138.66,0,0,1,10.24,13.16C344.56,364,346,366,347,368l1.62,2.87,1.36,2.72c.42.88.86,1.69,1.2,2.49l1,2.28.82,2c.22.62.41,1.19.59,1.71.32,1,.58,1.76.78,2.36A5,5,0,0,1,354.6,385.29Z"/><path class="cls-6" d="M411.89,316c0,.1-1.64.1-4.28.25a75.91,75.91,0,0,0-20.24,3.84c-2.51.83-4,1.43-4.08,1.34a3.66,3.66,0,0,1,1-.55c.67-.33,1.66-.75,2.91-1.22a61.47,61.47,0,0,1,20.37-3.87c1.33,0,2.41,0,3.15.07A3.38,3.38,0,0,1,411.89,316Z"/><path class="cls-6" d="M422.14,366c-.2.1-1.73-4.32-5.59-8.42s-8.11-6-8-6.2a9.43,9.43,0,0,1,2.75,1.22,24.3,24.3,0,0,1,9.81,10.56A9.92,9.92,0,0,1,422.14,366Z"/><path class="cls-6" d="M387.21,266.47c.13.14-2.37,2.62-5.09,6s-4.67,6.29-4.83,6.19,1.56-3.21,4.33-6.6A28.05,28.05,0,0,1,387.21,266.47Z"/><path class="cls-6" d="M379,252.31c.18,0,.73,2.37,1.24,5.36s.78,5.43.6,5.46-.72-2.37-1.23-5.35S378.84,252.34,379,252.31Z"/><path class="cls-6" d="M353.62,296.76c.15.08-1.63,3.82-4,8.36s-4.38,8.15-4.54,8.07,1.62-3.83,4-8.37S353.46,296.68,353.62,296.76Z"/><path class="cls-6" d="M338.5,281.67c.16-.08,1.67,2.63,3.37,6.05s2.95,6.25,2.79,6.33S343,291.42,341.3,288,338.34,281.75,338.5,281.67Z"/><path class="cls-6" d="M316.29,333.27c0,.19-2.74-.34-6.1-.57s-6.1-.1-6.12-.29,2.74-.59,6.17-.35A18,18,0,0,1,316.29,333.27Z"/><path class="cls-6" d="M331.46,378.9,339,418.64a5.56,5.56,0,0,0,5.47,4.53h22.32a5.57,5.57,0,0,0,5.5-4.66l6.57-39.61Z"/><polygon class="cls-8" points="333.91 391.82 376.61 391.82 378.88 378.9 331.46 378.9 333.91 391.82"/><polygon class="cls-4" points="333.91 391.82 334.81 396.53 375.96 396.53 376.61 391.82 333.91 391.82"/></g><g id="Character"><path class="cls-7" d="M160.14,417.56l2.58-11,21.43.53-1.79,15.65-1.37.11c-6.06.41-30.88,1.66-35,.48C141.5,422,160.14,417.56,160.14,417.56Z"/><g class="cls-9"><path d="M174.38,422.66a7.63,7.63,0,0,1,2.75-4.73,7.4,7.4,0,0,1,5.12-1.66l.08,6.15Z"/></g><g class="cls-9"><path d="M151,420.06s-6.53,2-5.7,3,25.95.75,37-.36l0-.49-29.3.63S152.32,420.09,151,420.06Z"/></g><path class="cls-6" d="M182.66,422.22a1.65,1.65,0,0,1-.38,0l-1.08.08-4,.22c-3.37.17-8,.33-13.2.4s-9.83,0-13.21,0l-4-.12-1.09-.05-.38,0a1.67,1.67,0,0,1,.38,0h1.09l4,0c3.38,0,8.05,0,13.21,0s9.82-.21,13.19-.33l4-.13,1.09,0A3.64,3.64,0,0,1,182.66,422.22Z"/><path class="cls-6" d="M153,423.21a9.06,9.06,0,0,0-.77-1.9,8.84,8.84,0,0,0-1.39-1.52,3.59,3.59,0,0,1,2.16,3.42Z"/><path class="cls-6" d="M159.48,419.83c-.06,0-.38-.33-.71-.83s-.54-.95-.48-1,.38.34.71.84S159.54,419.79,159.48,419.83Z"/><path class="cls-6" d="M161.25,418.87c-.05.05-.4-.18-.79-.51s-.65-.65-.6-.71.4.17.78.51S161.3,418.81,161.25,418.87Z"/><path class="cls-6" d="M162.35,416.77a2.51,2.51,0,0,1-1.15.17,2.71,2.71,0,0,1-1.15-.11,2.56,2.56,0,0,1,1.14-.16A2.68,2.68,0,0,1,162.35,416.77Z"/><path class="cls-6" d="M162.71,415.31a2.25,2.25,0,0,1-1.27.38,2.22,2.22,0,0,1-1.33-.16,7.62,7.62,0,0,1,1.3-.1A6.29,6.29,0,0,1,162.71,415.31Z"/><path class="cls-6" d="M158.71,417.92a4.21,4.21,0,0,1-1.42,0,8.64,8.64,0,0,1-1.51-.31,4.58,4.58,0,0,1-.86-.35.78.78,0,0,1-.36-.43.56.56,0,0,1,.21-.57A2.58,2.58,0,0,1,158,417a2.38,2.38,0,0,1,.48.94.85.85,0,0,1,0,.38,3.9,3.9,0,0,0-.66-1.2,2.5,2.5,0,0,0-1.22-.77,2.19,2.19,0,0,0-1.68.14c-.22.16-.13.43.12.57a3.54,3.54,0,0,0,.8.33,9.08,9.08,0,0,0,1.46.36C158.17,417.88,158.71,417.88,158.71,417.92Z"/><path class="cls-6" d="M158.34,418a1.43,1.43,0,0,1-.17-1,2.3,2.3,0,0,1,.37-1,1.4,1.4,0,0,1,1.17-.74.57.57,0,0,1,.44.65,1.48,1.48,0,0,1-.23.63,4.29,4.29,0,0,1-.66.87c-.44.44-.78.61-.8.58s.28-.26.66-.71a4.75,4.75,0,0,0,.58-.86c.19-.3.32-.83,0-.89s-.71.32-.92.61a2.31,2.31,0,0,0-.39.92A5.64,5.64,0,0,0,158.34,418Z"/><path class="cls-6" d="M182.14,416.21c0,.05-.64,0-1.63.08a6.84,6.84,0,0,0-5.7,4.67c-.33.94-.35,1.58-.4,1.57a1.09,1.09,0,0,1,0-.44,5.38,5.38,0,0,1,.23-1.19,6.7,6.7,0,0,1,5.86-4.8,5.73,5.73,0,0,1,1.21,0A1.09,1.09,0,0,1,182.14,416.21Z"/><path class="cls-6" d="M179.74,407.08a41.05,41.05,0,0,1,.25,4.52,40,40,0,0,1,0,4.52,38,38,0,0,1-.25-4.51A40.23,40.23,0,0,1,179.74,407.08Z"/><path class="cls-6" d="M171.58,420.55a18,18,0,0,1-6.43.14c0-.08,1.45,0,3.22-.05S171.57,420.47,171.58,420.55Z"/><path class="cls-6" d="M175.89,420.49c.06.05-.11.3-.25.63s-.22.63-.3.62-.12-.34,0-.72S175.85,420.43,175.89,420.49Z"/><path class="cls-6" d="M177.49,418.44c.06.05-.08.29-.31.52s-.45.38-.5.33.09-.28.31-.52S177.44,418.39,177.49,418.44Z"/><path class="cls-6" d="M179.81,417.49c0,.07-.31.08-.63.19s-.55.3-.61.25.12-.36.52-.5S179.83,417.42,179.81,417.49Z"/><path class="cls-6" d="M181.46,417c0,.07-.1.19-.28.26s-.35.08-.38,0,.1-.19.28-.26S181.43,417,181.46,417Z"/><path class="cls-7" d="M247.83,417.62l.06-11.75-22-.27-.28,17.19,1.36.1c6.07.41,30.88,1.66,35,.48C266.47,422.05,247.83,417.62,247.83,417.62Z"/><g class="cls-9"><path d="M233.59,422.71a7.65,7.65,0,0,0-2.75-4.73,7.45,7.45,0,0,0-5.12-1.66l-.08,6.15Z"/></g><g class="cls-9"><path d="M256.93,420.11s6.53,2,5.7,3-25.95.75-37-.36l0-.49,29.3.62S255.65,420.15,256.93,420.11Z"/></g><path class="cls-6" d="M225.31,422.28a2.28,2.28,0,0,0,.38,0l1.08.08,4,.23c3.37.16,8,.33,13.2.4s9.83,0,13.21,0l4-.11,1.09-.05a2.24,2.24,0,0,0,.37,0l-.38,0h-1.08l-4,0c-3.37,0-8,0-13.2,0s-9.82-.21-13.19-.32l-4-.14-1.09,0Z"/><path class="cls-6" d="M254.94,423.26a9.29,9.29,0,0,1,.77-1.9,8.12,8.12,0,0,1,1.39-1.51,2.88,2.88,0,0,0-1.61,1.37A3,3,0,0,0,254.94,423.26Z"/><path class="cls-6" d="M248.49,419.88c.06,0,.38-.33.71-.83s.54-.94.48-1-.38.33-.71.83S248.43,419.84,248.49,419.88Z"/><path class="cls-6" d="M246.72,418.92c.05.05.4-.17.78-.51s.66-.65.61-.71-.4.17-.78.51S246.67,418.86,246.72,418.92Z"/><path class="cls-6" d="M245.62,416.83a2.76,2.76,0,0,0,1.15.16,2.53,2.53,0,0,0,1.15-.11,2.76,2.76,0,0,0-1.15-.16A2.53,2.53,0,0,0,245.62,416.83Z"/><path class="cls-6" d="M245.25,415.36a2.4,2.4,0,0,0,1.28.39,2.31,2.31,0,0,0,1.33-.16,7.22,7.22,0,0,0-1.31-.11A6.21,6.21,0,0,0,245.25,415.36Z"/><path class="cls-6" d="M249.26,418a3.91,3.91,0,0,0,1.42,0,7.8,7.8,0,0,0,1.51-.31,5.27,5.27,0,0,0,.86-.34.84.84,0,0,0,.36-.44.56.56,0,0,0-.21-.57A2.62,2.62,0,0,0,250,417a2.47,2.47,0,0,0-.47.94c-.06.24-.06.38,0,.38a3.9,3.9,0,0,1,.66-1.2,2.57,2.57,0,0,1,1.22-.77,2.19,2.19,0,0,1,1.68.14c.22.17.13.43-.12.58a5.16,5.16,0,0,1-.8.33,11,11,0,0,1-1.46.36C249.8,417.94,249.26,417.93,249.26,418Z"/><path class="cls-6" d="M249.63,418.05a1.43,1.43,0,0,0,.17-1,2.34,2.34,0,0,0-.37-1,1.44,1.44,0,0,0-1.17-.74.56.56,0,0,0-.44.65,1.57,1.57,0,0,0,.23.64,4.49,4.49,0,0,0,.66.86c.44.44.78.61.8.58s-.28-.25-.66-.71a4.64,4.64,0,0,1-.58-.85c-.19-.3-.32-.84,0-.9s.72.33.93.61a2.31,2.31,0,0,1,.39.92A5.6,5.6,0,0,1,249.63,418.05Z"/><path class="cls-6" d="M225.83,416.26c0,.05.63-.05,1.63.08a6.88,6.88,0,0,1,5.7,4.67c.33.94.35,1.58.4,1.57a1.09,1.09,0,0,0,0-.44,6,6,0,0,0-.23-1.19,6.77,6.77,0,0,0-2.19-3.31,6.87,6.87,0,0,0-3.67-1.49,5.73,5.73,0,0,0-1.21,0A1.8,1.8,0,0,0,225.83,416.26Z"/><path class="cls-6" d="M228.23,407.14a40.74,40.74,0,0,0-.25,4.51,40.31,40.31,0,0,0,0,4.53,38.29,38.29,0,0,0,.25-4.52A40,40,0,0,0,228.23,407.14Z"/><path class="cls-6" d="M236.39,420.6a18,18,0,0,0,6.43.14c0-.07-1.45,0-3.22-.05S236.4,420.52,236.39,420.6Z"/><path class="cls-6" d="M232.08,420.54c-.06,0,.11.3.25.64s.22.62.3.62.11-.35,0-.73S232.12,420.49,232.08,420.54Z"/><path class="cls-6" d="M230.48,418.5c-.06.05.08.28.31.51s.45.38.5.33-.09-.28-.31-.51S230.53,418.44,230.48,418.5Z"/><path class="cls-6" d="M228.16,417.54c0,.08.31.08.63.2s.55.29.61.24-.12-.36-.52-.5S228.14,417.47,228.16,417.54Z"/><path class="cls-6" d="M226.51,417.08c0,.07.1.19.28.26s.35.08.38,0-.1-.18-.28-.26S226.54,417,226.51,417.08Z"/><polygon class="cls-6" points="260.34 203.18 250.33 414.84 222.85 415.49 225.02 231.96 183.91 415.84 160.51 414.78 197.2 203.6 260.34 203.18"/><path class="cls-8" d="M231.75,206a21,21,0,0,1-.24,3.48c-.23,2.14-.58,5.09-1,8.35a35.89,35.89,0,0,1-.76,4.6,6.48,6.48,0,0,1-2,3.29,5,5,0,0,1-2.33,1.15,2,2,0,0,1-.95,0,5.92,5.92,0,0,0,4.79-4.6,43.36,43.36,0,0,0,.7-4.53c.43-3.26.84-6.2,1.17-8.33A21,21,0,0,1,231.75,206Z"/><path class="cls-8" d="M225,207.29c.08.05-.18.4,0,1a1.14,1.14,0,0,0,.58.68,1,1,0,0,0,1.25-1.18,1.14,1.14,0,0,0-.65-.61c-.54-.21-.9,0-.95,0s.29-.49,1.06-.34a1.44,1.44,0,0,1,1,.8,1.48,1.48,0,0,1-2,1.86,1.43,1.43,0,0,1-.74-1.08C224.49,207.55,225,207.22,225,207.29Z"/><path class="cls-8" d="M207.55,210.94a6.15,6.15,0,0,1,.41-5.86c.16.06-.27,1.32-.37,2.91S207.72,210.89,207.55,210.94Z"/><path class="cls-8" d="M211.47,210.54a5.18,5.18,0,0,1-.58-3.07,5.13,5.13,0,0,1,.78-3,28,28,0,0,1-.2,3.05A26.11,26.11,0,0,1,211.47,210.54Z"/><path class="cls-8" d="M245.28,210.15a19.61,19.61,0,0,1,.07-3.16,20,20,0,0,1,0-3.17,6,6,0,0,1,.55,3.18A5.91,5.91,0,0,1,245.28,210.15Z"/><path class="cls-8" d="M249.54,209.76c-.16-.06.3-1.45.35-3.22s-.3-3.19-.14-3.24a5,5,0,0,1,.71,3.25A5.1,5.1,0,0,1,249.54,209.76Z"/><polygon class="cls-7" points="213.2 107.58 213.2 107.58 213.2 107.58 213.2 107.58"/><path class="cls-6" d="M243.26,70.45c1.12-1.33,2-3.7,1.31-5.29,1.34-.7,1.46-1.89,1.46-3.39a9.21,9.21,0,0,0-1.3-4.27,12.38,12.38,0,0,0-4.83-5.29,6.43,6.43,0,0,0-6.87.3,8.33,8.33,0,0,0-11.93-.84,8.84,8.84,0,0,1-1.81,1.65c-1.19.66-2.66.41-4,.54a7,7,0,0,0-5.82,9.76,7.62,7.62,0,0,0-3.23,5.83,22.32,22.32,0,0,0,.78,6.83c.61,2.77,1.32,5.68,3.28,7.73a8.05,8.05,0,0,0,5.14,2.43,8.21,8.21,0,0,0,7.2-3.39"/><path class="cls-10" d="M214,117.64l22.22-1c.12-2.36-1.08-17-1.08-17s8.4-1.3,8.5-9.7-1.35-27.68-1.35-27.68h0A29.2,29.2,0,0,0,213,66l-1.24,1Z"/><path class="cls-11" d="M235.14,99.55a19.53,19.53,0,0,1-10.94-3.11s2.58,6,11,5.29Z"/><path class="cls-10" d="M212.74,75.63c-.14-.06-5.77-1.71-5.58,4s5.91,4.38,5.91,4.21S212.74,75.63,212.74,75.63Z"/><path class="cls-11" d="M211.25,81.75s-.1.08-.27.16a1,1,0,0,1-.74,0A2.46,2.46,0,0,1,209,79.77a3.38,3.38,0,0,1,.23-1.45,1.21,1.21,0,0,1,.73-.79.51.51,0,0,1,.6.26c.08.16,0,.27.08.28s.12-.1.07-.34a.67.67,0,0,0-.24-.35.75.75,0,0,0-.56-.13,1.42,1.42,0,0,0-1,.93,3.36,3.36,0,0,0-.3,1.61,2.59,2.59,0,0,0,1.54,2.43,1.08,1.08,0,0,0,.91-.18C211.24,81.89,211.27,81.76,211.25,81.75Z"/><path class="cls-6" d="M240.43,75.45a1.2,1.2,0,0,1-1.16,1.21A1.15,1.15,0,0,1,238,75.58a1.19,1.19,0,0,1,1.15-1.21A1.15,1.15,0,0,1,240.43,75.45Z"/><path class="cls-6" d="M240.69,74.1c-.15.16-1.05-.52-2.34-.51s-2.24.65-2.38.49.08-.35.49-.65a3.33,3.33,0,0,1,1.91-.59,3.11,3.11,0,0,1,1.86.6C240.63,73.75,240.77,74,240.69,74.1Z"/><path class="cls-6" d="M227.79,75.75A1.19,1.19,0,0,1,226.64,77a1.15,1.15,0,0,1-1.24-1.08,1.2,1.2,0,0,1,1.15-1.21A1.14,1.14,0,0,1,227.79,75.75Z"/><path class="cls-6" d="M228,74.34c-.15.16-1.06-.51-2.35-.51s-2.24.65-2.38.49.08-.35.5-.65a3.29,3.29,0,0,1,1.9-.59,3.17,3.17,0,0,1,1.87.6C227.94,74,228.08,74.27,228,74.34Z"/><path class="cls-6" d="M232.69,83.91a8.92,8.92,0,0,1,2.1-.38c.33,0,.64-.1.69-.32a1.67,1.67,0,0,0-.22-1c-.31-.79-.63-1.63-1-2.51a44.34,44.34,0,0,1-2.19-6.56,43.74,43.74,0,0,1,2.71,6.37l.94,2.53a1.91,1.91,0,0,1,.17,1.29.83.83,0,0,1-.54.48,2.09,2.09,0,0,1-.56.08A8,8,0,0,1,232.69,83.91Z"/><path class="cls-6" d="M228.89,84.81c.21,0,.22,1.38,1.41,2.38s2.69.84,2.71,1-.34.28-1,.29a3.45,3.45,0,0,1-2.25-.78,3.08,3.08,0,0,1-1.1-2C228.64,85.14,228.8,84.8,228.89,84.81Z"/><path class="cls-6" d="M228.34,69.28c-.13.35-1.42.19-2.93.37s-2.74.6-2.94.28c-.09-.15.12-.48.62-.82a4.89,4.89,0,0,1,2.18-.76,4.81,4.81,0,0,1,2.29.27C228.11,68.84,228.39,69.12,228.34,69.28Z"/><path class="cls-6" d="M240.22,70.36c-.23.3-1.12,0-2.19,0s-2,.2-2.18-.11c-.09-.15.05-.44.45-.72a3.16,3.16,0,0,1,3.52.11C240.19,69.92,240.32,70.22,240.22,70.36Z"/><path class="cls-6" d="M211.26,66.55c.11,2.44-.44,5.17,0,7.57.07.37,1,1.34,1.09,1.7.5,2.12,1.38,3,2.64.84a18.53,18.53,0,0,0,1-4.14l1.53-7.76a13.4,13.4,0,0,0,6.39,1.52,6.56,6.56,0,0,0,5.45-3.22,6.78,6.78,0,0,0,10.51,1.38,2.83,2.83,0,0,0,3.74.79,3.36,3.36,0,0,0,1.37-3.7c-.58-2.05-2.78-3.16-4.82-3.76-8-2.35-16.82-.51-24,3.7a12.23,12.23,0,0,0-2.9,2.19c-.82.89-2,2-2,3.16"/><path class="cls-8" d="M230.28,80.35s.3-.36.7-1.07a5.23,5.23,0,0,0,.6-3.29,5,5,0,1,0-5.66,5.65,5.25,5.25,0,0,0,3.3-.59c.71-.4,1-.74,1.06-.7s-.06.1-.21.26a4.24,4.24,0,0,1-.75.61,5.18,5.18,0,0,1-3.45.79,5.42,5.42,0,0,1-4.68-6.18,5.42,5.42,0,0,1,4.58-4.57,5.33,5.33,0,0,1,3.13.46,5.39,5.39,0,0,1,3,4.22,5.21,5.21,0,0,1-.78,3.44,4,4,0,0,1-.61.76Q230.31,80.37,230.28,80.35Z"/><path class="cls-8" d="M243.57,80.35s.3-.36.69-1.07a5.23,5.23,0,0,0,.6-3.29,5,5,0,1,0-5.66,5.65,5.25,5.25,0,0,0,3.3-.59c.71-.4,1-.74,1.07-.7s-.06.1-.22.26a3.6,3.6,0,0,1-.75.61,5.18,5.18,0,0,1-3.45.79,5.44,5.44,0,1,1,6.07-6.07,5.16,5.16,0,0,1-.78,3.44,4,4,0,0,1-.61.76C243.67,80.29,243.58,80.36,243.57,80.35Z"/><path class="cls-8" d="M234.76,76.25c0,.15-.66.26-1.48.26s-1.49-.11-1.49-.26.67-.26,1.49-.26S234.76,76.11,234.76,76.25Z"/><path class="cls-8" d="M212.34,75.82a20.25,20.25,0,0,1,4.58-.42,20.86,20.86,0,0,1,4.59.11,19.71,19.71,0,0,1-4.57.41A20.65,20.65,0,0,1,212.34,75.82Z"/><path class="cls-10" d="M217.17,74.24,210,71.65,203.19,74l-9.41,9.84-6.12,5.84,10,4.44L203,92l8.43-5.74,4.77-9s-1.37-.64-2.89,1.51l-1.43,1.91-1.36-5.2,0-1.54,4.21,1.29a2.24,2.24,0,0,0,2.41-.7Z"/><path class="cls-11" d="M203.7,81.84c.05,0,.35.38.62,1.14a7.93,7.93,0,0,1,.42,3.1,8,8,0,0,1-.81,3c-.37.72-.71,1.09-.77,1a16.27,16.27,0,0,0,1.06-4.11A16.82,16.82,0,0,0,203.7,81.84Z"/><path class="cls-11" d="M203.77,82a13.65,13.65,0,0,1,2.61-.62h.05l.06,0a.93.93,0,0,1,.43,1,2.91,2.91,0,0,1-.45,1,1.07,1.07,0,0,0-.18.91,2.1,2.1,0,0,0,.71.84h-.31a5.77,5.77,0,0,0,1.82-1.76c.7-1.11-.1-2.28-.54-3.35a3.4,3.4,0,0,0-.34-.69.68.68,0,0,0-.56-.12l-1.42.22a16,16,0,0,1-2.84.32,15.25,15.25,0,0,1,2.78-.68l1.42-.28a1.06,1.06,0,0,1,1,.22,3.17,3.17,0,0,1,.45.81c.24.54.53,1.06.75,1.7a2.55,2.55,0,0,1-.2,2.1,6,6,0,0,1-2,1.92l-.16.11-.15-.13a2.66,2.66,0,0,1-.84-1.07,1.52,1.52,0,0,1,.25-1.28,2.54,2.54,0,0,0,.44-.87.6.6,0,0,0-.19-.64l.11,0A14.14,14.14,0,0,1,203.77,82Z"/><path class="cls-11" d="M209.08,82.71s.12.21.46.32a.88.88,0,0,0,1.12-.62,3.09,3.09,0,0,0-.42-2.22c-.36-.83-.73-1.84-1.16-2.75s-1.54-.76-2.44-.66-1.74.21-2.43.32a13.72,13.72,0,0,1-2.25.33,7.89,7.89,0,0,1,2.18-.69c.69-.16,1.52-.32,2.45-.44a6.63,6.63,0,0,1,1.51-.08,1.77,1.77,0,0,1,1.43,1c.49,1,.8,2,1.16,2.82a7.76,7.76,0,0,1,.42,1.29,2,2,0,0,1-.11,1.24,1.24,1.24,0,0,1-.75.74,1,1,0,0,1-.79-.06C209.06,83,209.05,82.7,209.08,82.71Z"/><path class="cls-11" d="M211.87,80.69a7.89,7.89,0,0,1-.69-1.92c-.19-.66-.4-1.37-.61-2.11-.12-.39-.23-.84-.35-1.23a1.41,1.41,0,0,0-.79-.83,4.19,4.19,0,0,0-2.46.24l-2.13.57a8.22,8.22,0,0,1-2,.39,8.07,8.07,0,0,1,1.89-.75l2.1-.67a4.37,4.37,0,0,1,2.8-.26,1.91,1.91,0,0,1,1.07,1.14c.14.47.22.87.33,1.28.18.75.35,1.46.5,2.14A7.6,7.6,0,0,1,211.87,80.69Z"/><path class="cls-11" d="M193.78,83.85a1.22,1.22,0,0,1,.15-.19c.14-.14.29-.32.48-.53.47-.49,1.09-1.16,1.87-2l6.82-7.21,0,0h0l6.79-2.39.05,0,0,0,7.18,2.59.11,0v.47l0,0a2.33,2.33,0,0,1-1.14.76,3.1,3.1,0,0,1-1.42,0h0l-2.95-.9-1.26-.39.2-.14c0,.51,0,1-.05,1.54v0c.46,1.78.92,3.52,1.36,5.2l-.27-.05c.62-.82,1.19-1.62,1.82-2.4a2.58,2.58,0,0,1,2.68-1.06l.14,0-.08.15-4.79,9,0,0h0l-6.2,4.16-1.69,1.11c-.39.26-.6.38-.6.38s.19-.16.56-.43,1-.68,1.66-1.16l6.15-4.24,0,0,4.74-9,.07.2a1.65,1.65,0,0,0-1.26.12,3.46,3.46,0,0,0-1.08.87c-.59.74-1.18,1.58-1.8,2.39l-.18.25-.08-.3q-.67-2.53-1.37-5.2v0c0-.51,0-1,.05-1.54v-.21l.2.06,1.26.39,2.95.9h0a2.91,2.91,0,0,0,1.28,0,2.07,2.07,0,0,0,1-.66l0,.1v-.3l.1.14-7.18-2.6h.1l-6.81,2.35.05,0-6.9,7.13-1.91,2-.51.51A1.4,1.4,0,0,1,193.78,83.85Z"/><path class="cls-7" d="M196.7,147.15l-.47-34.55,9-3c2.83-.54,5.58-1.57,8.91-1.71h0a17.54,17.54,0,0,0,21.41.27l.3-.23c.86.1,2,.21,3.43.38l.28,0a21,21,0,0,1,9.83,3.92v0l44.72,26.7,26.26-20,13.3,10.43s-34.4,34.4-37.74,35.22c-2.31.57-25.26-12-39.17-19.72.57,8.33,3.68,54.63,3.53,61h-63.9l0-29.2v-7.95Z"/><path class="cls-6" d="M255.89,125.11a8.13,8.13,0,0,0,0,1.54c0,1.11.07,2.51.12,4.16.13,3.52.36,8.37.65,13.73s.58,10.21.83,13.72c.13,1.65.24,3,.32,4.16a7.18,7.18,0,0,0,.21,1.52,6.38,6.38,0,0,0,0-1.53q0-1.68-.12-4.17c-.13-3.52-.35-8.37-.64-13.73s-.59-10.22-.83-13.73c-.13-1.65-.24-3-.33-4.15A6.44,6.44,0,0,0,255.89,125.11Z"/><path class="cls-6" d="M313.34,124.65c-.15.16,2.74,2.89,6.43,6.11s6.77,5.72,6.89,5.58-2.78-2.84-6.47-6.07c-1.84-1.61-3.53-3-4.77-4.06A13.91,13.91,0,0,0,313.34,124.65Z"/><path class="cls-6" d="M310.29,126.93c-.13.14,2.81,2.88,6.51,6.16,1.85,1.64,3.55,3.09,4.8,4.12a10.48,10.48,0,0,0,2.12,1.57,10.61,10.61,0,0,0-1.82-1.91c-1.17-1.12-2.82-2.63-4.68-4.27s-3.55-3.09-4.81-4.11A10.45,10.45,0,0,0,310.29,126.93Z"/><path class="cls-7" d="M189.68,84s-25.56,23.93-33.63,33.68c-3.65,4.41-4.48,11-1.55,15.9h0a12.17,12.17,0,0,0,11.27,5.9l30.79-2.06,2.33-25.61-18.61,5.81L202,94.91Z"/><path class="cls-6" d="M196.36,157.65c-.14,0-.18-5.5-.09-12.27s.28-12.25.43-12.25.18,5.49.09,12.26S196.51,157.65,196.36,157.65Z"/><path class="cls-6" d="M188.7,108.77a6.06,6.06,0,0,1-.77,1l-2.26,2.53c-1.93,2.13-4.66,5.09-7.78,8.44l.06-.11c-.31,1.08-.67,2.19-1.09,3.3a32.25,32.25,0,0,1-3.39,6.86,15.69,15.69,0,0,1-4.53,4.31,11,11,0,0,1-3.92,1.57,8,8,0,0,1-1.14.13,1.25,1.25,0,0,1-.4,0c0-.05.55-.08,1.5-.31a12,12,0,0,0,3.76-1.68,16,16,0,0,0,4.33-4.27,34.12,34.12,0,0,0,3.31-6.77c.41-1.1.77-2.2,1.08-3.26l0-.06,0,0c3.13-3.34,5.9-6.25,7.9-8.32l2.37-2.42A6.6,6.6,0,0,1,188.7,108.77Z"/><path class="cls-6" d="M176.4,124.56a9.65,9.65,0,0,1,.39,4.83,9.53,9.53,0,0,1-1.54,4.59c-.15-.06.72-2,1-4.65S176.24,124.58,176.4,124.56Z"/><path class="cls-4" d="M205.64,205.22a1.16,1.16,0,0,1-.14-.2l-.39-.62-1.44-2.4a41.5,41.5,0,0,1-2.13-3.9,9.52,9.52,0,0,1-.9-5.81c.41-2.2,1.72-4.28,2.67-6.61a10.53,10.53,0,0,0,.84-3.77,17.15,17.15,0,0,0-.43-4.11c-.59-2.79-1.67-5.66-1.95-8.83a31.48,31.48,0,0,1,.86-9.69c.73-3.25,1.63-6.37,2.27-9.42a45.45,45.45,0,0,0,.7-4.52c0-.74.1-1.48.12-2.21s0-1.46,0-2.17a81.3,81.3,0,0,0-2.51-15c-1-4.23-1.71-7.69-2-10.11-.17-1.21-.27-2.15-.3-2.79,0-.29,0-.53-.05-.73a1.66,1.66,0,0,1,0-.25,1,1,0,0,1,.06.25q0,.28.09.72c.07.64.2,1.57.4,2.77.38,2.4,1.14,5.83,2.19,10.05a79.46,79.46,0,0,1,2.63,15.07c0,.72,0,1.46,0,2.2s-.07,1.49-.11,2.25a43.85,43.85,0,0,1-.71,4.58c-.63,3.08-1.53,6.19-2.25,9.42a31.21,31.21,0,0,0-.86,9.53c.26,3.09,1.32,5.94,1.91,8.78a17.44,17.44,0,0,1,.41,4.23,10.75,10.75,0,0,1-.89,3.91c-1,2.38-2.3,4.41-2.7,6.52a9.18,9.18,0,0,0,.8,5.62,42.85,42.85,0,0,0,2,3.92l1.35,2.45.34.64C205.62,205.14,205.65,205.22,205.64,205.22Z"/><path class="cls-4" d="M219.56,111.76a2.46,2.46,0,0,1,.07.24l.15.71c.14.62.31,1.54.51,2.74a74,74,0,0,1,.87,10.21,75.73,75.73,0,0,1-1.31,15.13c-1,5.63-2.66,11.72-3.2,18.27s.46,12.81,1.23,18.46a117.09,117.09,0,0,1,1.52,15.12,35.37,35.37,0,0,1-1.21,10.16c-.07.3-.14.57-.21.83l-.26.71c-.15.43-.29.8-.41,1.11l-.26.67c-.06.15-.1.23-.1.23a.88.88,0,0,1,.05-.25q.09-.27.21-.69c.11-.31.23-.68.37-1.11.07-.23.15-.46.23-.72s.12-.54.19-.83a36.94,36.94,0,0,0,1-10.11,122.27,122.27,0,0,0-1.62-15c-.8-5.65-1.78-11.93-1.28-18.57s2.22-12.71,3.25-18.31a77.16,77.16,0,0,0,1.41-15.05,80.92,80.92,0,0,0-.7-10.18c-.17-1.2-.31-2.13-.41-2.75,0-.29-.08-.53-.11-.72A.69.69,0,0,1,219.56,111.76Z"/><path class="cls-4" d="M243,205.26a1.87,1.87,0,0,1-.14-.21l-.37-.64a6,6,0,0,1-.51-1.1c-.08-.22-.19-.46-.27-.72s-.14-.56-.22-.86a15.89,15.89,0,0,1-.32-4.51,53.23,53.23,0,0,1,.78-5.94,49.65,49.65,0,0,0,.9-7.14,21.69,21.69,0,0,0-1.41-8,64.39,64.39,0,0,1-2.78-8.77,29.14,29.14,0,0,1,.18-9.89c.53-3.34,1.21-6.57,1.4-9.73a37.3,37.3,0,0,0-.71-9.06c-1.12-5.72-2.67-10.79-3.2-15.22a28.41,28.41,0,0,1,.32-10.46,13.91,13.91,0,0,1,1.32-3.62.86.86,0,0,1-.08.25l-.26.69a22.43,22.43,0,0,0-.79,2.72,29.13,29.13,0,0,0-.14,10.37c.56,4.38,2.15,9.42,3.3,15.18a37.12,37.12,0,0,1,.75,9.18c-.19,3.21-.87,6.46-1.39,9.78a28.39,28.39,0,0,0-.2,9.71,66.16,66.16,0,0,0,2.73,8.71,29.89,29.89,0,0,1,1.12,4.16,18.78,18.78,0,0,1,.27,4.06,49.27,49.27,0,0,1-1,7.2,54.65,54.65,0,0,0-.86,5.88,16.25,16.25,0,0,0,.23,4.46A15.29,15.29,0,0,0,243,205.26Z"/><path class="cls-4" d="M251.49,115.41a1.33,1.33,0,0,1,.08.23l.19.67c.18.59.37,1.47.59,2.62a43,43,0,0,1,.39,9.86c-.25,4.16-1.05,9.07-1.8,14.51a130.3,130.3,0,0,0-1.11,17.81,241.09,241.09,0,0,0,2.88,32.32c.61,4.08,1.11,7.4,1.46,9.75.16,1.11.29,2,.39,2.65,0,.28.06.5.09.69a1.08,1.08,0,0,1,0,.24,1,1,0,0,1-.07-.23c0-.19-.08-.41-.14-.69-.11-.64-.28-1.52-.48-2.63-.4-2.29-1-5.61-1.62-9.72a222.92,222.92,0,0,1-3-32.38,124.93,124.93,0,0,1,1.16-17.88c.77-5.45,1.61-10.33,1.9-14.47a44.9,44.9,0,0,0-.22-9.8c-.18-1.14-.34-2-.49-2.63l-.14-.68A.71.71,0,0,1,251.49,115.41Z"/><path class="cls-4" d="M266.89,151.16a3.75,3.75,0,0,1-.15-1c-.06-.66-.13-1.62-.19-2.81-.13-2.37-.24-5.65-.25-9.28s.06-6.91.17-9.28c0-1.19.11-2.15.17-2.81a4.45,4.45,0,0,1,.13-1,3.81,3.81,0,0,1,.07,1v2.81c0,2.51,0,5.72,0,9.27s.07,6.77.1,9.27c0,1.1,0,2,0,2.81A4.56,4.56,0,0,1,266.89,151.16Z"/><path class="cls-4" d="M276.56,128.64a6.7,6.7,0,0,1-.47.91,5.94,5.94,0,0,0-.58,2.64c0,1.15.25,2.55.41,4.09s.53,3.22.76,5a22.62,22.62,0,0,1,.09,5.11,12.54,12.54,0,0,1-1,4.08,11.06,11.06,0,0,1-1.47,2.4,3.27,3.27,0,0,1-.72.75,22.81,22.81,0,0,0,1.85-3.29,19.37,19.37,0,0,0,.7-9c-.23-1.77-.55-3.46-.72-5a37.21,37.21,0,0,1-.29-4.16,5.48,5.48,0,0,1,.77-2.72A2.72,2.72,0,0,1,276.56,128.64Z"/><path class="cls-4" d="M168.83,137.78a7.88,7.88,0,0,1,1.34,0,14.45,14.45,0,0,0,3.57-.33,8.72,8.72,0,0,0,4.32-2.88c1.32-1.51,2.66-3.32,4.13-5.14,2.92-3.68,5.58-7,7.53-9.36l2.32-2.8a6.18,6.18,0,0,1,.91-1,6.88,6.88,0,0,1-.75,1.11l-2.2,2.9c-1.87,2.43-4.49,5.78-7.4,9.45-1.48,1.83-2.81,3.61-4.18,5.14a8.89,8.89,0,0,1-4.59,2.92,12.38,12.38,0,0,1-3.67.17A5.85,5.85,0,0,1,168.83,137.78Z"/><path class="cls-4" d="M194.23,89.94a3.43,3.43,0,0,1-.25.59,10.44,10.44,0,0,1-.85,1.6,20,20,0,0,1-4.44,5c-2.15,1.84-5,3.67-7.95,5.85s-6.15,4.85-8.07,8.65a53.06,53.06,0,0,1-2.94,5.55,15.85,15.85,0,0,1-4.24,4.07c-1.54,1.07-3.06,2-4.39,2.91a16.06,16.06,0,0,0-3.36,3,7.84,7.84,0,0,0-1.86,6.06,6.87,6.87,0,0,0,.82,2.25s0,0-.11-.12a2.45,2.45,0,0,1-.27-.39,5.21,5.21,0,0,1-.64-1.7,7.92,7.92,0,0,1,1.77-6.33,16.17,16.17,0,0,1,3.4-3.14c1.34-1,2.86-1.89,4.36-3a15.55,15.55,0,0,0,4.1-4,53.67,53.67,0,0,0,2.89-5.51c2-3.91,5.26-6.65,8.26-8.8s5.84-4,8-5.74A21,21,0,0,0,193,92a12.71,12.71,0,0,0,.93-1.54A2.69,2.69,0,0,1,194.23,89.94Z"/><g class="cls-12"><path d="M164,136.61a15.74,15.74,0,0,0,15.94-15.68c0-.53-.08-1.16-.55-1.4a1.06,1.06,0,0,0-1.25.43,3.32,3.32,0,0,0-.45,1.35A22,22,0,0,1,165.25,137"/></g><g class="cls-12"><path d="M286.93,135.82a5.59,5.59,0,0,0-1.57,2c-2.16,3.42-6.46,4.8-9.32,7.65-2.19,2.19-3.94,4.78-4,7.88l4.69,2.13,12.19-19C288.87,135.64,287.66,135.37,286.93,135.82Z"/></g><path class="cls-2" d="M67.52,372.31s-16.41,3.53-7.88,23.54,3.43,25.46-2.46,26.86l45.1-.29,4-50.29Z"/><path class="cls-3" d="M100.34,422.69a13,13,0,0,1-8.68-3.26c-3.71-3.26-8.29-9.36-9.2-19.94-1.92-22.39-14.94-27.17-14.94-27.17l38.71-.17s12.57,0,13.59,19.87c1.06,20.83,30,32.79,47.78,30.46Z"/><path class="cls-1" d="M158,337.71s-20.27-2.43-22.52,42.49-36.22,42.48-36.22,42.48h67.72s14.09-3.13,10.81-34.86c-1.38-13.3,22.49-50.11,22.49-50.11Z"/><path class="cls-2" d="M146.67,342.79c-2.16,2.6-1.28,6.74.61,9.54s4.84,4.69,7.83,6.25,6.15,2.88,8.84,4.93c4.16,3.18,6.93,7.9,8.61,12.86a79.36,79.36,0,0,1,3.06,15.38s-2.22-37.27-8.77-47.6S150.81,337.83,146.67,342.79Z"/><path class="cls-3" d="M198.87,422.68s-20,1-22.78-22.21S171,339.1,158,337.71l41,0A14,14,0,0,1,212,346.57c1.79,4.58,3.6,11.36,4.72,21.21,2.37,20.83,14.17,55.14,43.73,54.84Z"/><path class="cls-6" d="M212.33,403.56c0,.14-6,.26-13.35.26s-13.35-.12-13.35-.26,6-.26,13.35-.26S212.33,403.41,212.33,403.56Z"/><path class="cls-6" d="M219.14,405.17a35.36,35.36,0,0,1-.22-3.93l.22.23-3.93,0,.26-.26h0v1c0,.35,0,.68,0,1,0,.64,0,1.26,0,1.85l-.22-.22a35.36,35.36,0,0,1,3.93.22,26.56,26.56,0,0,1-3.93.23H215v-.23c0-.59,0-1.21,0-1.85,0-.34,0-.67,0-1v-1h0l.26-.26,3.93,0h.23v.22A26.56,26.56,0,0,1,219.14,405.17Z"/><path class="cls-6" d="M218.46,412.17c0,.15-6,.27-13.35.27s-13.34-.12-13.34-.27,6-.26,13.34-.26S218.46,412,218.46,412.17Z"/><path class="cls-6" d="M225.28,413.79a34.06,34.06,0,0,1-.23-3.93l.23.22-3.94,0,.26-.26h0v2.06q0,1,0,1.86l-.23-.23a34.13,34.13,0,0,1,3.94.23,28,28,0,0,1-3.94.22h-.22v-.23q0-.89,0-1.86v-2.06h0l.26-.26,3.94,0h.23v.23A27.93,27.93,0,0,1,225.28,413.79Z"/><path class="cls-6" d="M207.18,381.86c0,.14-6,.26-13.35.26s-13.34-.12-13.34-.26,6-.26,13.34-.26S207.18,381.71,207.18,381.86Z"/><path class="cls-6" d="M214,383.47a33.62,33.62,0,0,1-.23-3.93l.23.23-3.94,0,.26-.26h0v2.05c0,.64,0,1.26,0,1.85l-.23-.22a35.66,35.66,0,0,1,3.94.22,26.81,26.81,0,0,1-3.94.23h-.22v-.23c0-.59,0-1.21,0-1.85v-2.05h0l.26-.26,3.94,0h.23v.22A27.75,27.75,0,0,1,214,383.47Z"/><path class="cls-6" d="M205.72,370.53c0,.15-6,.26-13.35.26s-13.35-.11-13.35-.26,6-.26,13.35-.26S205.72,370.39,205.72,370.53Z"/><path class="cls-6" d="M212.53,372.15a35.66,35.66,0,0,1-.22-3.94l.22.23-3.93,0,.26-.26h0v1c0,.35,0,.69,0,1,0,.65,0,1.26,0,1.86l-.22-.23a33.84,33.84,0,0,1,3.93.23,29.83,29.83,0,0,1-3.93.22h-.22v-.23c0-.6,0-1.21,0-1.86,0-.33,0-.67,0-1v-1h0c-.23.24.32-.31.26-.26l3.93,0h.23v.22A26.81,26.81,0,0,1,212.53,372.15Z"/><path class="cls-6" d="M203.78,360.16c0,.14-6,.26-13.35.26s-13.35-.12-13.35-.26,6-.26,13.35-.26S203.78,360,203.78,360.16Z"/><path class="cls-6" d="M210.59,361.77a33.62,33.62,0,0,1-.23-3.93l.23.23-3.93,0,.26-.26h0v1c0,.35,0,.69,0,1,0,.64,0,1.26,0,1.85l-.22-.22a35.59,35.59,0,0,1,3.93.22,26.73,26.73,0,0,1-3.93.23h-.22v-.23c0-.59,0-1.21,0-1.85,0-.33,0-.67,0-1v-1h0l.26-.26,3.93,0h.23v.22A27.75,27.75,0,0,1,210.59,361.77Z"/><path class="cls-6" d="M201,350.65c0,.14-6,.26-13.35.26s-13.35-.12-13.35-.26,6-.26,13.35-.26S201,350.5,201,350.65Z"/><path class="cls-6" d="M207.84,352.26a35.36,35.36,0,0,1-.22-3.93l.22.22-3.93,0,.26-.26h0v1.05c0,.34,0,.68,0,1,0,.64,0,1.26,0,1.85l-.22-.23a36.72,36.72,0,0,1,3.93.23,28.46,28.46,0,0,1-3.93.23h-.22v-.23c0-.59,0-1.21,0-1.85,0-.34,0-.68,0-1v-1.05h0l.26-.26,3.93,0h.23v.22A26.73,26.73,0,0,1,207.84,352.26Z"/><path class="cls-6" d="M196.4,342.67c0,.14-6,.26-13.35.26s-13.35-.12-13.35-.26,6-.26,13.35-.26S196.4,342.53,196.4,342.67Z"/><path class="cls-6" d="M203.21,344.29a35.66,35.66,0,0,1-.22-3.94l.22.23-3.93,0,.26-.26h0v1c0,.35,0,.69,0,1,0,.65,0,1.26,0,1.86l-.22-.23a33.84,33.84,0,0,1,3.93.23,29.83,29.83,0,0,1-3.93.22h-.22v-.23c0-.6,0-1.21,0-1.86,0-.33,0-.67,0-1v-1h0c-.23.24.32-.31.26-.26l3.93,0h.23v.22A26.81,26.81,0,0,1,203.21,344.29Z"/><path class="cls-7" d="M205.71,363.05a9.45,9.45,0,0,1,1.8-2.61l.67-.79.17-.2.18.17c.91.84,1.52,1.49,1.45,1.58s-.81-.42-1.77-1.21l.35,0-.65.81A9.78,9.78,0,0,1,205.71,363.05Z"/><path class="cls-7" d="M207.77,373a9.6,9.6,0,0,1,1.8-2.6l.67-.8.17-.19.18.16c.92.84,1.52,1.49,1.45,1.58s-.81-.42-1.77-1.2l.35,0-.65.81A9.85,9.85,0,0,1,207.77,373Z"/><path class="cls-7" d="M213.63,406.8a9.45,9.45,0,0,1,1.8-2.61l.67-.79.17-.2.18.17c.91.84,1.52,1.49,1.45,1.58s-.81-.42-1.77-1.21l.35,0-.65.81A10,10,0,0,1,213.63,406.8Z"/><path class="cls-7" d="M209.24,384.35a9.92,9.92,0,0,1,1.81-2.61l.67-.79.16-.2.19.17c.91.84,1.52,1.49,1.45,1.58s-.81-.42-1.77-1.21l.35,0-.65.81A9.7,9.7,0,0,1,209.24,384.35Z"/><path class="cls-6" d="M209.75,392.71c0,.14-6,.26-13.34.26s-13.35-.12-13.35-.26,6-.26,13.35-.26S209.75,392.56,209.75,392.71Z"/><path class="cls-6" d="M216.57,394.32a33.84,33.84,0,0,1-.23-3.93l.23.23-3.93,0,.26-.26h0v2.05c0,.64,0,1.26,0,1.85l-.22-.22a35.59,35.59,0,0,1,3.93.22,26.73,26.73,0,0,1-3.93.23h-.23v-.23c0-.59,0-1.21,0-1.85,0-.34,0-.67,0-1v-1h0l.26-.26,3.93,0h.23v.22A27.75,27.75,0,0,1,216.57,394.32Z"/><path class="cls-7" d="M211.26,395.66a10,10,0,0,1,1.8-2.61c.23-.26.44-.52.67-.79l.17-.2.18.17c.92.84,1.52,1.49,1.45,1.57s-.81-.41-1.77-1.2l.35,0-.64.81A9.93,9.93,0,0,1,211.26,395.66Z"/><path class="cls-6" d="M98.79,409.61c0-.14,5.42-.26,12.11-.26s12.12.12,12.12.26-5.43.26-12.12.26S98.79,409.75,98.79,409.61Z"/><path class="cls-6" d="M92.61,408.14a29.88,29.88,0,0,1,.22,3.57l-.22-.22,3.56,0-.26.26h0v-1.87c0-.59,0-1.15,0-1.69l.22.23a28.13,28.13,0,0,1-3.56-.23,22.5,22.5,0,0,1,3.56-.22h.23v.23c0,.54,0,1.1,0,1.69v1.87h0c.24-.23-.31.32-.26.26l-3.56,0h-.23v-.22A21.91,21.91,0,0,1,92.61,408.14Z"/><path class="cls-7" d="M97.42,406.93a7.87,7.87,0,0,1-1.61,2.38l-.61.72-.17.2-.18-.17c-.83-.76-1.38-1.36-1.3-1.45s.74.37,1.62,1.08l-.35,0,.58-.74C96.41,407.76,97.31,406.84,97.42,406.93Z"/><path class="cls-6" d="M94,402.5c0-.15,5.43-.26,12.11-.26s12.12.11,12.12.26-5.42.26-12.12.26S94,402.64,94,402.5Z"/><path class="cls-6" d="M87.79,401A29.88,29.88,0,0,1,88,404.6l-.22-.22,3.57,0c0-.06-.5.49-.26.26h0v-.95c0-.31,0-.62,0-.92,0-.59,0-1.15,0-1.69l.23.23a28.19,28.19,0,0,1-3.57-.23,22.57,22.57,0,0,1,3.57-.22h.22V401c0,.54,0,1.1,0,1.69v1.87h0l-.26.26-3.57,0h-.23v-.22A21.91,21.91,0,0,1,87.79,401Z"/><path class="cls-7" d="M92.61,399.82A8.26,8.26,0,0,1,91,402.2l-.61.72-.17.2L90,403c-.83-.76-1.37-1.36-1.3-1.45s.75.37,1.62,1.08l-.35,0,.58-.74C91.59,400.65,92.5,399.73,92.61,399.82Z"/><path class="cls-6" d="M92.33,394.47c0-.15,5.42-.26,12.11-.26s12.12.11,12.12.26-5.43.26-12.12.26S92.33,394.61,92.33,394.47Z"/><path class="cls-6" d="M86.15,393a32.6,32.6,0,0,1,.22,3.57l-.22-.22,3.56,0-.26.26h0v-1.87c0-.59,0-1.15,0-1.69l.22.23a28.13,28.13,0,0,1-3.56-.23,22.5,22.5,0,0,1,3.56-.22h.23V393c0,.54,0,1.1,0,1.69,0,.3,0,.61,0,.92v.95h0l-.26.26-3.56,0h-.24v-.22A21.91,21.91,0,0,1,86.15,393Z"/><path class="cls-7" d="M91,391.79a8,8,0,0,1-1.62,2.38l-.6.72-.17.2-.18-.17c-.83-.76-1.38-1.36-1.3-1.45s.74.37,1.62,1.08l-.35,0,.58-.74C90,392.62,90.85,391.7,91,391.79Z"/><path class="cls-6" d="M90.55,386.26c0-.15,5.43-.26,12.12-.26s12.11.11,12.11.26-5.42.26-12.11.26S90.55,386.4,90.55,386.26Z"/><path class="cls-6" d="M84.37,384.79a30.61,30.61,0,0,1,.23,3.57l-.23-.23,3.57,0-.26.26h0v-.93c0-.32,0-.62,0-.93,0-.58,0-1.14,0-1.68l.23.23a30.61,30.61,0,0,1-3.57-.23,22.72,22.72,0,0,1,3.57-.22h.22v.23q0,.81,0,1.68c0,.31,0,.61,0,.93v.93h0l-.26.26-3.57,0h-.23v-.22A22.72,22.72,0,0,1,84.37,384.79Z"/><path class="cls-7" d="M89.19,383.58A8.41,8.41,0,0,1,87.57,386l-.61.72-.17.19-.18-.16c-.83-.77-1.37-1.36-1.3-1.45s.75.37,1.62,1.07l-.35,0,.59-.73C88.17,384.4,89.08,383.49,89.19,383.58Z"/><path class="cls-6" d="M86,378.15c0-.14,5.42-.26,12.11-.26s12.11.12,12.11.26-5.42.26-12.11.26S86,378.3,86,378.15Z"/><path class="cls-6" d="M79.78,376.69a28.19,28.19,0,0,1,.23,3.57l-.23-.23,3.57,0-.26.26h0v-.95c0-.31,0-.62,0-.92q0-.87,0-1.68l.22.22a29.66,29.66,0,0,1-3.57-.22,21.91,21.91,0,0,1,3.57-.23h.22v.23c0,.54,0,1.1,0,1.68,0,.3,0,.61,0,.92v.95h0c.23-.23-.32.32-.26.27l-3.57,0h-.23v-.22A22.57,22.57,0,0,1,79.78,376.69Z"/><path class="cls-7" d="M84.6,375.47A8,8,0,0,1,83,377.85l-.61.72-.16.2L82,378.6c-.83-.76-1.37-1.36-1.3-1.44s.75.36,1.62,1.07l-.35,0,.59-.74C83.58,376.3,84.49,375.38,84.6,375.47Z"/><path class="cls-6" d="M157.29,337.67a.58.58,0,0,1,.21,0l.62,0,2.4,0,8.94-.06,30.58,0h0a10.45,10.45,0,0,1,6.3,1.2,13.84,13.84,0,0,1,5,4.49,27.68,27.68,0,0,1,3.93,10.55c.71,3.57,1.22,7,1.65,10.35.88,6.61,1.42,12.61,2.49,17.52a52.33,52.33,0,0,0,3.88,11.23c.61,1.27,1.16,2.22,1.52,2.87l.44.72.13.26a1.11,1.11,0,0,1-.18-.23l-.47-.7a31.56,31.56,0,0,1-1.62-2.83A49.91,49.91,0,0,1,219,381.7c-1.12-4.95-1.7-10.93-2.6-17.54-.45-3.3-1-6.76-1.68-10.31a27.58,27.58,0,0,0-3.85-10.36,13.55,13.55,0,0,0-4.78-4.33,10,10,0,0,0-6-1.15h0l-30.58-.16-8.94-.09-2.4-.05-.62,0Z"/><path class="cls-6" d="M57.18,422.71a6.52,6.52,0,0,0,.85-.23,7.84,7.84,0,0,0,2.3-1.14A8.18,8.18,0,0,0,63,418.15a12.52,12.52,0,0,0,1-5.56,29,29,0,0,0-1-7.09,67.1,67.1,0,0,0-3-8c-.58-1.43-1.14-2.92-1.64-4.5a29.23,29.23,0,0,1-1.19-5,16.32,16.32,0,0,1,2-10.77,10.87,10.87,0,0,1,4.36-4.08,9.14,9.14,0,0,1,1.46-.55c.25-.06.5-.15.76-.2l.79-.1a5.15,5.15,0,0,1,3.13.65,15.93,15.93,0,0,1,4.79,4.4,40,40,0,0,1,3.6,5.71,46.4,46.4,0,0,1,2.76,6.4,26.33,26.33,0,0,1,1,3.46c.22,1.2.32,2.39.5,3.59a68.46,68.46,0,0,0,1.35,7.23A73.91,73.91,0,0,0,85.86,411a16.13,16.13,0,0,0,1.56,3.46,13.29,13.29,0,0,0,2.51,2.9,20.76,20.76,0,0,0,3.17,2.28,21.93,21.93,0,0,0,3.53,1.76,11.84,11.84,0,0,0,3.86.77c1.32,0,2.7-.15,4.05-.26a29.91,29.91,0,0,0,8-1.66,31.09,31.09,0,0,0,7.32-4,24.72,24.72,0,0,0,5.92-6,49.62,49.62,0,0,0,7.27-15.72,60.41,60.41,0,0,0,1.53-7.71c.32-2.58.48-5.18.7-7.76a131.69,131.69,0,0,1,1.95-15.18c.5-2.47,1.13-4.89,1.84-7.25a52.72,52.72,0,0,1,2.46-6.93,26.85,26.85,0,0,1,3.84-6.12,17.54,17.54,0,0,1,5.48-4.48h0a11.82,11.82,0,0,1,5.88-1.67,8.6,8.6,0,0,1,5.59,2.09,14.26,14.26,0,0,1,3.43,4.76,49,49,0,0,1,2,5.33,112.82,112.82,0,0,1,4.78,20.85c.94,6.69,1.42,13,1.84,18.89a70.77,70.77,0,0,0,2.52,16,28.79,28.79,0,0,0,6.35,11.36,19.47,19.47,0,0,0,8.14,5.2,16.54,16.54,0,0,0,6,.8c.69-.06,1.21-.12,1.56-.19l.53-.07-.53.11a11.4,11.4,0,0,1-1.56.23,16.06,16.06,0,0,1-6.06-.73,19.64,19.64,0,0,1-8.26-5.19,28.83,28.83,0,0,1-6.46-11.43c-1.52-4.71-2.16-10.16-2.6-16s-.93-12.19-1.88-18.86a113.37,113.37,0,0,0-4.81-20.76,47,47,0,0,0-2-5.27,13.67,13.67,0,0,0-3.31-4.61,8.17,8.17,0,0,0-5.3-2,11.34,11.34,0,0,0-5.62,1.61l0,0a17,17,0,0,0-5.29,4.35,26,26,0,0,0-3.76,6,53,53,0,0,0-2.43,6.86c-.71,2.36-1.33,4.76-1.83,7.21a132.29,132.29,0,0,0-1.94,15.12c-.21,2.58-.37,5.17-.69,7.79a63.68,63.68,0,0,1-1.54,7.78,50.33,50.33,0,0,1-7.36,15.88,24.86,24.86,0,0,1-6,6.14,31.24,31.24,0,0,1-7.43,4.06,30.82,30.82,0,0,1-8.15,1.69c-1.38.1-2.71.24-4.11.25a12.19,12.19,0,0,1-4-.8,24.88,24.88,0,0,1-6.86-4.15,13.75,13.75,0,0,1-2.59-3,16.63,16.63,0,0,1-1.6-3.56,72.41,72.41,0,0,1-2.25-7.27,69.78,69.78,0,0,1-1.34-7.28,34.09,34.09,0,0,0-4.15-13.31,38.46,38.46,0,0,0-3.54-5.65,15.67,15.67,0,0,0-4.65-4.3c-1.81-1.11-4-.61-5.78.19a10.47,10.47,0,0,0-4.22,3.93,16,16,0,0,0-2,10.53,28.59,28.59,0,0,0,1.16,4.91c.49,1.56,1,3.05,1.61,4.48a65.89,65.89,0,0,1,3,8.06,29.43,29.43,0,0,1,1,7.16,12.68,12.68,0,0,1-1.12,5.63,8.15,8.15,0,0,1-2.72,3.21,7.76,7.76,0,0,1-2.34,1.1A4.81,4.81,0,0,1,57.18,422.71Z"/><path class="cls-6" d="M127.4,408.32s-.07,0-.18-.12-.29-.22-.5-.4a21.41,21.41,0,0,1-1.78-1.72,27.69,27.69,0,0,1-2.49-3,19.63,19.63,0,0,1-2.46-4.58,41.19,41.19,0,0,1-1.37-6.13c-.35-2.23-.63-4.62-1.07-7.1a25.05,25.05,0,0,0-2.39-7.46,13.88,13.88,0,0,0-2.4-3.33,5.23,5.23,0,0,0-1.62-1.25,8.83,8.83,0,0,0-2-.6,45.61,45.61,0,0,0-8.45-.43c-2.75,0-5.4.18-7.93.2l-13.45.12-9.07,0H67.77a4.35,4.35,0,0,1-.86,0s.29,0,.86-.06l2.46-.08,9.06-.2,13.44-.23c2.53,0,5.18-.18,7.94-.23a45.37,45.37,0,0,1,8.56.43,9.22,9.22,0,0,1,2.14.64,4,4,0,0,1,1,.61c.27.24.55.48.8.75a14.5,14.5,0,0,1,2.48,3.45,25.6,25.6,0,0,1,2.42,7.61c.42,2.51.68,4.9,1,7.12a40.24,40.24,0,0,0,1.29,6.08,19.58,19.58,0,0,0,2.35,4.53,29.9,29.9,0,0,0,2.4,3.06c.71.79,1.29,1.38,1.7,1.77S127.41,408.31,127.4,408.32Z"/><path class="cls-10" d="M337.54,106a6.71,6.71,0,0,1,3.59-5.8,2.29,2.29,0,0,1,1.11-.31,1,1,0,0,1,.92.59,1.13,1.13,0,0,1-.32,1.13,9.11,9.11,0,0,1-1,.77,3.59,3.59,0,0,0-1.23,3.45"/><path class="cls-1" d="M318.69,63.1a17.36,17.36,0,0,0-16,18.52c.92,13.5.63,31.84-5.81,43C285.75,143.94,269,147.37,270.29,186s3,42.72-4.72,52.7-24.46,4.82-31.76,27.57-2.15,136.49-13.74,148.51c0,0-9.44,9-19.31,8.16h55.46a18,18,0,0,0,12.68-5,14.27,14.27,0,0,0,4.4-10.43c0-7.83,2.57-118.46,6.87-127.91s26.61-19.08,30-40.87,2.21-57,2.19-63.39c0-6,1.16-17.78,12.71-31.51,17.44-20.73,15.05-43.41,15.48-51.13s-3-31-3-31Z"/><path class="cls-2" d="M304.23,78.73a5.35,5.35,0,0,1,9.57-1.6c1.65,2.4,1.27,6,3.48,7.9,1.42,1.21,3.46,1.29,5.32,1.26A84.87,84.87,0,0,0,340,84.13l-1.28-18.25S311,63.44,307.58,68,304.23,78.73,304.23,78.73Z"/><path class="cls-3" d="M302.92,88.1c0-4.12.93-7.75,1.9-11.75,1.17-4.84,4.54-8.37,8.62-8.95,5.17-.74,10.28,6.72,10.28,6.72s20.09-2.92,29.66-3.63c-.7-2.49-5.72-8.91-9.33-9.69a45.79,45.79,0,0,0-11-.59c-6.6.18-13.43.41-19.39,3.25s-12.1,7-10.65,22.34"/><path class="cls-6" d="M342,61.25a6.23,6.23,0,0,1-1,.11l-2.73.21c-2.3.18-5.48.41-9,.78s-6.65.82-8.92,1.22l-2.68.49a5.86,5.86,0,0,1-1,.15,6,6,0,0,1,1-.27c.63-.16,1.54-.36,2.67-.59,2.27-.45,5.43-1,8.93-1.31s6.69-.57,9-.69l2.73-.11A4.57,4.57,0,0,1,342,61.25Z"/><path class="cls-6" d="M279.76,280.8c0,.14-8.51,1.52-19.05,3.08s-19.1,2.71-19.12,2.57,8.5-1.52,19-3.09S279.74,280.65,279.76,280.8Z"/><path class="cls-6" d="M281.76,276.63c0,.14-7.83.31-17.49.37s-17.49,0-17.49-.16,7.83-.31,17.49-.36S281.76,276.48,281.76,276.63Z"/><path class="cls-6" d="M203.21,423.06l1-.13a20.08,20.08,0,0,0,2.78-.57,31.09,31.09,0,0,0,9.71-4.84,36.74,36.74,0,0,0,2.94-2.32,9,9,0,0,0,2.21-3.4,45.76,45.76,0,0,0,2.41-9A221.29,221.29,0,0,0,226.74,380c1.17-16.94,1.65-37.16,2.34-59.6.38-11.23.75-23,1.68-35.2.25-3.05.54-6.12.94-9.21a59.7,59.7,0,0,1,1.76-9.26c.5-1.51,1.08-3,1.65-4.48l1.07-2.16.54-1.08c.2-.34.43-.68.65-1a24.33,24.33,0,0,1,6.53-7.15,37.26,37.26,0,0,1,8.56-4.55,57.76,57.76,0,0,0,8.64-3.9l1-.62c.31-.23.6-.48.9-.73l.9-.73.78-.85c.25-.29.52-.57.77-.86l.69-.94c.48-.61.9-1.26,1.32-1.91a22.68,22.68,0,0,0,2.09-4.07,23.86,23.86,0,0,0,1.12-4.4,58.14,58.14,0,0,0,.51-9c0-3-.11-6-.21-8.9q-.34-8.81-.67-17.23c-.08-2.81-.25-5.57-.23-8.32,0-1.37,0-2.73,0-4.08s.14-2.69.2-4c.07-2.67.54-5.27.85-7.84a59.07,59.07,0,0,1,1.8-7.42,47.11,47.11,0,0,1,6.33-13,122.89,122.89,0,0,1,8.38-10.38,95.13,95.13,0,0,0,7.39-9.56c.51-.81,1-1.61,1.5-2.39s.88-1.61,1.31-2.4a41.22,41.22,0,0,0,1.92-4.84,71.55,71.55,0,0,0,3-17c.32-4.74.31-8.43.29-10.92,0-1.24,0-2.19-.05-2.85s0-1,0-1,.1,1.31.16,3.81.1,6.2-.19,10.94A71.38,71.38,0,0,1,300,118a40.85,40.85,0,0,1-1.92,4.89c-.43.79-.82,1.64-1.32,2.42s-1,1.59-1.49,2.41a96,96,0,0,1-7.39,9.62,121.28,121.28,0,0,0-8.33,10.37,46.74,46.74,0,0,0-6.25,12.89,63.42,63.42,0,0,0-1.78,7.37c-.3,2.55-.75,5.13-.82,7.79-.06,1.32-.18,2.65-.2,4s0,2.7,0,4.07c0,2.72.15,5.5.24,8.3q.33,8.41.69,17.24c.1,2.94.2,5.91.21,8.91a57,57,0,0,1-.51,9.1,24.54,24.54,0,0,1-1.14,4.5,22.81,22.81,0,0,1-2.14,4.17,23.08,23.08,0,0,1-1.34,1.94l-.7.94c-.25.31-.53.59-.79.89l-.81.89-.92.76c-.31.24-.61.51-.94.74l-1,.64a57.79,57.79,0,0,1-8.71,3.94,37.39,37.39,0,0,0-8.45,4.48,24,24,0,0,0-6.4,7c-.21.33-.44.66-.64,1l-.53,1.06-1,2.12c-.56,1.48-1.14,2.95-1.64,4.43a60,60,0,0,0-1.74,9.17c-.4,3.08-.69,6.14-.94,9.19-.94,12.17-1.32,23.95-1.71,35.17-.72,22.44-1.23,42.67-2.45,59.62a217.79,217.79,0,0,1-2.6,22.78,45.43,45.43,0,0,1-2.47,9.08,9.16,9.16,0,0,1-2.29,3.47,36.06,36.06,0,0,1-3,2.32,30.59,30.59,0,0,1-9.8,4.78,17.61,17.61,0,0,1-2.8.52Z"/><path class="cls-6" d="M303,86.17l-.09-1.26c-.05-.85-.13-2.08-.23-3.71a18.86,18.86,0,0,1,.1-2.74c.1-1,.38-2.08.61-3.25a15.73,15.73,0,0,1,3.73-7.3,23.88,23.88,0,0,1,8.78-5.41A45.1,45.1,0,0,1,327.93,60c2.21-.19,4.5-.29,6.87-.33a25.46,25.46,0,0,1,7.29.76,21.85,21.85,0,0,1,3.62,1.31A16.15,16.15,0,0,1,349,63.9a19.57,19.57,0,0,1,2.84,2.91A10.91,10.91,0,0,1,353,68.56a4.77,4.77,0,0,1,.62,2.06v.17l-.18,0c-4.49.38-9.3,1.37-14.34,2l.18-.22c.59,4.88,1.19,10,1.5,15.23.08,1.31.13,2.65.11,4s-.1,2.68-.1,4c0,2.72-.05,5.48-.21,8.28a75.52,75.52,0,0,1-2.88,17,63.71,63.71,0,0,1-7.59,16.43c-3.31,5.25-7.89,9.69-11,15.28a45.47,45.47,0,0,0-6.21,18.25,84.62,84.62,0,0,0-.13,10q.08,5,.13,10.14c.05,6.8,0,13.69-.23,20.65-.28,8-.7,16-1.72,23.74A43.34,43.34,0,0,1,308.18,247a44.16,44.16,0,0,1-5.87,9.88c-4.69,6-10.53,10.77-15.86,15.68l-1.95,1.89c-.62.66-1.23,1.31-1.82,2l-.81,1.06a5.73,5.73,0,0,0-.74,1.1l-.65,1.14a12.63,12.63,0,0,0-.44,1.22,83.91,83.91,0,0,0-1.55,10.4c-1.33,13.84-1.95,27.06-2.56,39.42s-1,23.88-1.35,34.4-.63,20-.85,28.39q-.14,6.27-.26,11.65a31.84,31.84,0,0,1-.28,5.14,13.56,13.56,0,0,1-1.58,4.39,16.3,16.3,0,0,1-5.4,5.61,18,18,0,0,1-5.28,2.23,17.6,17.6,0,0,1-3.49.52c-.79,0-1.2,0-1.2,0l.3,0c.2,0,.5,0,.9-.05a18.58,18.58,0,0,0,8.68-2.82,16,16,0,0,0,5.31-5.58,13.58,13.58,0,0,0,1.54-4.33,32.47,32.47,0,0,0,.25-5.11c.07-3.58.14-7.47.22-11.65.19-8.36.44-17.88.77-28.4s.74-22,1.29-34.4,1.19-25.58,2.51-39.45a83.41,83.41,0,0,1,1.56-10.48c.15-.43.27-.89.46-1.3l.68-1.19a6.57,6.57,0,0,1,.76-1.13l.83-1.08c.6-.69,1.22-1.35,1.84-2l2-1.9c5.36-4.94,11.16-9.66,15.79-15.63a38.64,38.64,0,0,0,8.53-21c1-7.75,1.43-15.68,1.71-23.7.23-6.95.28-13.83.23-20.63,0-3.4-.08-6.77-.12-10.13a83.68,83.68,0,0,1,.13-10,45.94,45.94,0,0,1,6.28-18.45c3.14-5.66,7.74-10.12,11-15.3a63.14,63.14,0,0,0,7.55-16.3,75.53,75.53,0,0,0,2.88-16.9c.16-2.79.2-5.55.22-8.27,0-1.35.06-2.73.1-4s0-2.66-.09-4c-.31-5.25-.9-10.32-1.49-15.2l0-.21.2,0c5-.62,9.83-1.6,14.37-2l-.18.19A7,7,0,0,0,351.55,67a19.82,19.82,0,0,0-2.78-2.86A16.13,16.13,0,0,0,345.56,62a22.37,22.37,0,0,0-3.56-1.3,25.38,25.38,0,0,0-7.2-.76c-2.36,0-4.64.12-6.84.31a44.51,44.51,0,0,0-12,2.48,23.81,23.81,0,0,0-8.72,5.31,15.58,15.58,0,0,0-3.73,7.2c-.23,1.16-.52,2.23-.63,3.23a17.44,17.44,0,0,0-.12,2.72c.08,1.62.14,2.86.18,3.7S303,86.17,303,86.17Z"/><path class="cls-6" d="M353.4,70.62a2.21,2.21,0,0,1-.57.12L351.2,71l-6,.79L325.34,74.2l-1.59.18-.16,0-.09-.13a25,25,0,0,0-3.33-4.2,8.73,8.73,0,0,0-4.19-2.4,8.6,8.6,0,0,0-4.36.26,8.12,8.12,0,0,0-3.23,2,14.41,14.41,0,0,0-3,4.74c-.23.62-.4,1.11-.5,1.45a2.34,2.34,0,0,1-.18.5,2.58,2.58,0,0,1,.08-.53,14.3,14.3,0,0,1,3.3-6.41,8.53,8.53,0,0,1,3.36-2.16,8.9,8.9,0,0,1,4.59-.32,9,9,0,0,1,4.44,2.5A25.32,25.32,0,0,1,323.94,74l-.25-.11,1.59-.19,19.87-2.27,6-.63,1.64-.15A2.55,2.55,0,0,1,353.4,70.62Z"/><path class="cls-10" d="M340.55,107.77a1.24,1.24,0,0,1-.81,1.14l-6,2.27c-.91.35-2.14.61-2.71-.19a1.54,1.54,0,0,1,.24-1.85,4.47,4.47,0,0,1,1.7-1c2.31-1,4.84-1.94,7.18-2.91a.34.34,0,0,1,.47.34Z"/><path class="cls-10" d="M340.77,109.78a2.54,2.54,0,0,1-1.56,2.93l-5.58,2.14c-.91.34-2.14.6-2.71-.19a1.54,1.54,0,0,1,.24-1.85,4.49,4.49,0,0,1,1.7-1c2.2-.92,4.61-1.85,6.86-2.77a.73.73,0,0,1,1,.52Z"/><path class="cls-10" d="M339.78,112.77a3.7,3.7,0,0,1-2.28,4.31l-4.64,1.77c-.92.35-2.15.61-2.72-.19a1.56,1.56,0,0,1,.24-1.85,4.58,4.58,0,0,1,1.71-1c2.47-1,5.19-2.08,7.66-3.11Z"/><path class="cls-6" d="M315.27,160.2c0,.14-7.31,2.85-16.43,6.06s-16.56,5.71-16.61,5.57,7.31-2.85,16.43-6.06S315.22,160.07,315.27,160.2Z"/><path class="cls-6" d="M311.32,164.2a18.56,18.56,0,0,1-2.66,1.9c-1.68,1.11-4,2.59-6.69,4.16s-5.08,2.93-6.86,3.87a17.77,17.77,0,0,1-2.94,1.42,22.63,22.63,0,0,1,2.76-1.74l6.78-4,6.76-4A21.79,21.79,0,0,1,311.32,164.2Z"/></g><g id="Speech_Bubble" data-name="Speech Bubble"><path class="cls-6" d="M157.21,41.49a1.62,1.62,0,0,1,0,.33c0,.24,0,.54,0,.9,0,.83,0,2,.06,3.36,0,2.91.07,7,.12,11.81l-.23-.22,16.4,0c.06-.05-.49.5-.26.26h0V55.66c0-.74,0-1.47,0-2.19V49.23c0-2.75,0-5.35,0-7.74l.22.23L161.8,41.6l-3.36-.06-.9,0-.33,0s.38,0,1.14-.05l3.3-.06,12-.11h.23v.23c0,2.39,0,5,0,7.74v8.65h0c.24-.23-.31.32-.26.26l-16.4,0H157v-.23c0-4.9.08-9,.11-12,0-1.38.05-2.48.06-3.31S157.2,41.48,157.21,41.49Z"/><path class="cls-7" d="M177,37.83c.34.27-3.14,5.06-7.76,10.69-1,1.17-1.9,2.29-2.77,3.31l-.51.58-.55-.49c-3.84-3.46-6.45-6.09-6.22-6.35s3.2,1.93,7.19,5.23l-1,.09c.82-1,1.74-2.19,2.7-3.37C172.68,41.9,176.7,37.56,177,37.83Z"/><path class="cls-8" d="M167.12,25.81h-.41l-1.2,0c-.26,0-.56,0-.88,0l-1.06.15-1.24.18-1.38.34a22.28,22.28,0,0,0-6.69,2.92,23.56,23.56,0,0,0-10.85,17.75,24.88,24.88,0,0,0-.07,3.24c0,.55,0,1.1.11,1.66s.17,1.1.25,1.66A23.71,23.71,0,0,0,146,60.37a25.41,25.41,0,0,0,4.3,5.92,25,25,0,0,0,6.2,4.45A22.41,22.41,0,0,0,164,73.06a15,15,0,0,0,2,.17,17.36,17.36,0,0,0,2,0,24.62,24.62,0,0,0,4.08-.52,23.88,23.88,0,0,0,8.12-3.41l-.25,0,8.28,3.32.49.2-.14-.51q-1.26-4.56-2.43-8.85l0,.22a23.69,23.69,0,0,0,4.41-10.11,21.1,21.1,0,0,0,.32-5.17,15.68,15.68,0,0,0-.23-2.49c-.07-.41-.13-.81-.19-1.21s-.2-.79-.29-1.17A23.65,23.65,0,0,0,181,30.13a22.61,22.61,0,0,0-5.5-2.9l-1.23-.44-1.18-.3L172,26.22l-1-.15c-.63-.08-1.18-.18-1.66-.21l-1.21,0h-1a1.08,1.08,0,0,0,.25,0l.74.06,1.21.08c.48,0,1,.16,1.64.25a23.51,23.51,0,0,1,18.82,17.45c.09.38.2.76.27,1.15l.18,1.19a15.16,15.16,0,0,1,.22,2.44,21.36,21.36,0,0,1-.33,5.08,23.43,23.43,0,0,1-4.36,9.89l-.07.1,0,.12c.78,2.86,1.59,5.81,2.41,8.85l.35-.31-8.27-3.33-.13-.06-.11.08A23.2,23.2,0,0,1,168,72.73a18.84,18.84,0,0,1-2,0,14.14,14.14,0,0,1-2-.17,21.85,21.85,0,0,1-7.39-2.26,24.42,24.42,0,0,1-6.08-4.34,25.23,25.23,0,0,1-4.22-5.79,23.71,23.71,0,0,1-2.23-6.44c-.08-.55-.16-1.1-.25-1.64s-.07-1.08-.11-1.62a25.84,25.84,0,0,1,0-3.18,23.37,23.37,0,0,1,10.57-17.54,22.67,22.67,0,0,1,6.59-3l1.36-.36,1.22-.2,1-.18.88-.06,1.19-.09A1.91,1.91,0,0,0,167.12,25.81Z"/></g></g></svg>