<svg width="200" height="94" viewBox="0 0 200 94" fill="none" xmlns="http://www.w3.org/2000/svg">
<path d="M6.8252 54.9657H2.25161C1.87634 54.9657 1.68871 54.2386 1.68871 52.7845C1.68871 52.4092 1.73562 52.1512 1.82944 52.0105C4.45632 50.697 6.5672 49.4305 8.1621 48.2109C8.86573 47.6949 9.68663 47.0382 10.6248 46.2407C11.563 45.3964 12.3604 44.6927 13.0171 44.1298C13.7208 43.52 14.096 43.1917 14.1429 43.1448C14.5182 43.1448 14.9169 43.2386 15.3391 43.4262C15.7613 43.5669 15.9724 43.7311 15.9724 43.9188V50.8143H23.5716C23.9468 50.8143 24.1345 51.0489 24.1345 51.5179C24.1345 52.8783 23.8999 54.0276 23.4308 54.9657H15.9724V71.6417C15.9724 75.2068 17.2389 76.9893 19.772 76.9893C20.4756 76.9893 21.1089 76.919 21.6718 76.7782C22.2816 76.5906 22.7507 76.403 23.079 76.2153C23.4074 76.0277 23.595 75.9339 23.6419 75.9339C23.8296 75.9339 24.0172 76.1684 24.2048 76.6375C24.4394 77.1066 24.5567 77.4584 24.5567 77.6929C24.5567 78.2558 23.595 79.0298 21.6718 80.0149C19.7485 81 17.9425 81.4925 16.2538 81.4925C13.6739 81.4925 11.4457 80.6951 9.56935 79.1002C7.73992 77.4584 6.8252 74.8315 6.8252 71.2196V54.9657ZM41.1623 76.4264C42.3819 76.4264 43.3201 76.145 43.9768 75.5821C44.6804 74.9722 45.0323 74.2452 45.0323 73.4008V66.2942C44.9384 66.3411 44.4694 66.5052 43.625 66.7867C42.8276 67.0212 42.3116 67.1854 42.077 67.2792C41.8425 67.3731 41.3968 67.5607 40.7401 67.8421C40.0834 68.0767 39.6143 68.3112 39.3329 68.5458C39.0983 68.7334 38.7934 68.9914 38.4181 69.3198C38.0429 69.6481 37.7849 69.9999 37.6442 70.3752C37.5034 70.7505 37.4331 71.1726 37.4331 71.6417C37.4331 73.3304 37.7849 74.5501 38.4885 75.3006C39.239 76.0511 40.1303 76.4264 41.1623 76.4264ZM43.9768 49.4071C47.2604 49.4071 49.77 50.3218 51.5056 52.1512C53.2882 53.9337 54.1794 57.1939 54.1794 61.9317V73.3304C54.1794 74.9253 54.7423 75.7228 55.8681 75.7228C56.6656 75.7228 57.463 75.4179 58.2605 74.8081C58.5888 74.9957 58.753 75.3475 58.753 75.8635C58.753 77.0362 58.5888 77.904 58.2605 78.4669C57.6038 79.0767 56.5249 79.7335 55.0238 80.4371C53.5696 81.0938 52.1858 81.4222 50.8724 81.4222C49.7466 81.4222 48.6677 81.0938 47.6357 80.4371C46.6037 79.7335 45.9235 78.936 45.5952 78.0448C45.5483 78.0448 45.3606 78.1855 45.0323 78.4669C44.7039 78.7015 44.2817 78.9829 43.7657 79.3113C43.2497 79.6397 42.6399 79.968 41.9363 80.2964C41.2796 80.6247 40.4821 80.9062 39.544 81.1407C38.6058 81.3753 37.6676 81.4925 36.7294 81.4925C34.1495 81.4925 32.0855 80.7889 30.5375 79.3817C29.0364 77.9275 28.2859 76.1215 28.2859 73.9637C28.2859 72.6972 28.5673 71.5479 29.1302 70.5159C29.7401 69.437 30.4202 68.5692 31.1708 67.9125C31.9682 67.2089 33.0237 66.5756 34.3371 66.0127C35.6505 65.4029 36.7763 64.9573 37.7145 64.6758C38.6527 64.3474 39.8489 63.9956 41.303 63.6204C42.8041 63.1982 43.8361 62.8933 44.399 62.7056C44.8212 62.5649 45.0323 62.2131 45.0323 61.6502V59.1171C45.0323 55.2706 43.8595 53.3474 41.5141 53.3474C38.7934 53.3474 37.4331 54.9188 37.4331 58.0617C37.4331 59.0937 37.0109 59.8677 36.1665 60.3837C35.3222 60.8528 34.384 61.0873 33.352 61.0873C31.1942 61.0873 29.7166 60.3837 28.9192 58.9764C28.9192 56.5841 30.4906 54.4028 33.6335 52.4327C36.8233 50.4156 40.271 49.4071 43.9768 49.4071ZM74.5847 49.4071C78.7126 49.4071 81.7617 49.8761 83.7319 50.8143C84.2009 52.9721 84.4355 55.8804 84.4355 59.5393C84.4355 59.9615 84.1306 60.1726 83.5208 60.1726C82.0666 60.1726 81.2926 59.9849 81.1988 59.6097C80.7766 57.6395 80.0495 56.0915 79.0175 54.9657C78.0325 53.8399 76.4376 53.277 74.2329 53.277C73.2009 53.277 72.3565 53.535 71.6998 54.051C71.0431 54.5201 70.7147 55.2237 70.7147 56.1619C70.7147 57.2408 71.1838 58.179 72.122 58.9764C73.0601 59.7269 74.4439 60.5478 76.2734 61.4391C77.5399 62.0489 78.525 62.5649 79.2286 62.9871C79.9792 63.4093 80.9408 64.0894 82.1135 65.0276C83.3331 65.9189 84.2244 66.9743 84.7873 68.194C85.3971 69.4136 85.702 70.7739 85.702 72.275C85.702 75.371 84.5058 77.7164 82.1135 79.3113C79.7681 80.9062 76.7659 81.7036 73.1071 81.7036C71.4653 81.7036 69.6358 81.4456 67.6187 80.9296C65.6017 80.4136 64.1475 79.7804 63.2562 79.0298C62.6933 75.7931 62.4119 72.9317 62.4119 70.4456C62.5995 70.3048 62.9513 70.2345 63.4673 70.2345C64.9684 70.2345 65.7424 70.4456 65.7893 70.8677C66.5868 75.5117 69.1198 77.8337 73.3885 77.8337C74.5143 77.8337 75.4525 77.5757 76.203 77.0597C76.9536 76.5437 77.3288 75.8166 77.3288 74.8784C77.3288 73.7057 76.8128 72.7206 75.7808 71.9232C74.7958 71.1257 72.9898 70.0703 70.3629 68.7569C67.6422 67.4434 65.6251 66.0127 64.3117 64.4647C62.9982 62.8698 62.3415 60.9231 62.3415 58.6246C62.3415 55.4348 63.5612 53.1128 66.0004 51.6587C68.4396 50.1576 71.3011 49.4071 74.5847 49.4071ZM121.939 54.1214C118.608 56.0446 115.395 58.6011 112.299 61.7909C113.66 63.2451 115.419 65.2153 117.576 67.7014C119.734 70.1876 121.517 72.2281 122.924 73.823C124.378 75.4179 125.387 76.4264 125.95 76.8486C126.559 77.3646 127.357 77.8102 128.342 78.1855C129.327 78.5138 130.031 78.678 130.453 78.678C130.687 78.678 130.805 79.1237 130.805 80.0149C130.805 80.6247 130.758 81.0235 130.664 81.2111C125.035 80.9296 122.08 80.7889 121.798 80.7889C120.672 80.7889 118.89 80.8593 116.451 81C114.011 81.1876 112.674 81.2815 112.44 81.2815C112.252 81.0938 112.158 80.6247 112.158 79.8742C112.158 79.0767 112.252 78.678 112.44 78.678C112.909 78.678 113.448 78.5842 114.058 78.3966C114.668 78.2089 114.973 77.9978 114.973 77.7633C114.973 77.6695 114.95 77.5991 114.903 77.5522L104.63 65.8016L103.856 66.0127V70.5159C103.856 73.5181 104.02 75.6524 104.348 76.919C104.442 77.2473 105.099 77.6226 106.318 78.0448C107.538 78.4669 108.359 78.678 108.781 78.678C108.922 78.678 108.992 79.0767 108.992 79.8742C109.039 80.6247 109.016 81.0938 108.922 81.2815C108.406 81.2345 106.928 81.1407 104.489 81C102.097 80.8124 100.361 80.7185 99.2821 80.7185C98.1562 80.7185 96.3972 80.8124 94.0048 81C91.6125 81.1407 90.1583 81.2345 89.6423 81.2815C89.4547 81.0938 89.3609 80.6247 89.3609 79.8742C89.3609 79.0767 89.4547 78.678 89.6423 78.678C90.1583 78.678 91.0261 78.4669 92.2458 78.0448C93.4654 77.6226 94.1221 77.2473 94.2159 76.919C94.5443 75.5117 94.7085 73.7292 94.7085 71.5714V43.6373C94.7085 41.4326 94.5912 39.7439 94.3566 38.5712C94.1221 37.8206 92.9025 37.4454 90.6978 37.4454H90.0645C89.7831 37.4454 89.6423 36.9763 89.6423 36.0381C89.6423 35.2407 89.7831 34.8419 90.0645 34.8419C91.5187 34.7012 92.9728 34.5136 94.427 34.279C95.9281 34.0445 97.1946 33.8099 98.2266 33.5754C99.2586 33.3409 100.173 33.1063 100.971 32.8718C101.815 32.6372 102.472 32.4496 102.941 32.3089L103.645 32.0978H103.785C103.973 32.0978 104.161 32.2385 104.348 32.52C104.536 32.8014 104.653 33.0594 104.7 33.294C104.137 35.4048 103.856 37.7737 103.856 40.4006V62.776C105.122 62.4476 105.92 62.1427 106.248 61.8613C106.999 61.2046 107.796 60.5244 108.64 59.8208C109.532 59.0702 110.188 58.5073 110.61 58.1321C111.08 57.7099 111.572 57.2877 112.088 56.8655C112.651 56.3964 113.05 56.0446 113.284 55.8101C113.519 55.5286 113.753 55.2706 113.988 55.0361C114.222 54.7546 114.363 54.5201 114.41 54.3325C114.504 54.0979 114.551 53.8868 114.551 53.6992C114.551 53.277 114.316 52.9956 113.847 52.8548C113.378 52.7141 112.862 52.6438 112.299 52.6438C111.736 52.5968 111.408 52.5499 111.314 52.503C111.22 52.1747 111.173 51.6821 111.173 51.0254C111.173 50.3687 111.267 50.0169 111.455 49.97C114.832 50.0169 117.506 50.0403 119.476 50.0403C122.244 50.0403 124.683 49.9934 126.794 49.8996C126.982 49.9934 127.075 50.2749 127.075 50.744C127.122 51.1661 127.122 51.5649 127.075 51.9401C127.028 52.3154 126.958 52.503 126.864 52.503C125.41 52.503 123.768 53.0425 121.939 54.1214Z" fill="#454545"/>
<path d="M159.12 50.3921C160.292 50.3921 160.41 50.3921 159.471 50.3921H160.034L162.004 39.9081C162.145 39.2513 162.216 38.5946 162.216 37.9379C162.216 37.0466 160.785 36.601 157.923 36.601C157.783 36.601 157.712 36.4603 157.712 36.1788C157.712 35.6159 157.9 35.1468 158.275 34.7716C161.512 34.4901 164.537 33.8334 167.352 32.8014C167.633 32.989 167.774 33.4347 167.774 34.1383L166.719 39.4155L160.105 73.5415C159.964 74.1044 159.894 74.6908 159.894 75.3006C159.894 76.4733 160.128 77.0597 160.597 77.0597C160.879 77.0597 161.207 76.9424 161.582 76.7079C162.004 76.4264 162.403 76.0981 162.778 75.7228C163.201 75.3475 163.576 74.9957 163.904 74.6673C164.233 74.2921 164.537 73.9637 164.819 73.6823L165.241 73.1897C165.335 73.1897 165.499 73.4243 165.734 73.8933C166.015 74.3155 166.156 74.6204 166.156 74.8081C165.546 75.8401 164.28 77.2004 162.356 78.8891C160.433 80.5778 158.744 81.4222 157.29 81.4222C156.54 81.4222 155.953 81.0938 155.531 80.4371C155.109 79.7335 154.898 78.8422 154.898 77.7633C154.898 77.0128 155.062 75.7697 155.39 74.0341C155.484 73.6588 155.555 73.3539 155.601 73.1194C155.648 72.8379 155.695 72.6503 155.742 72.5565C155.789 72.4157 155.812 72.275 155.812 72.1343C155.203 73.2132 154.476 74.339 153.631 75.5117C152.834 76.6844 151.661 77.9509 150.113 79.3113C148.565 80.6716 147.158 81.3518 145.891 81.3518C143.734 81.3518 142.068 80.4371 140.896 78.6077C139.723 76.7313 139.136 74.4797 139.136 71.8528C139.136 66.7867 141.294 61.9551 145.61 57.3581C149.925 52.7141 154.429 50.3921 159.12 50.3921ZM158.627 57.0063C158.815 56.115 158.721 55.341 158.346 54.6843C157.97 53.9806 157.337 53.6288 156.446 53.6288C153.584 53.6288 150.84 55.4348 148.213 59.0468C145.633 62.6118 144.343 66.4114 144.343 70.4456C144.343 74.9957 145.54 77.2708 147.932 77.2708C149.667 77.2708 151.567 75.5586 153.631 72.1343C155.695 68.663 157.079 65.1449 157.783 61.5798L158.627 57.0063ZM185.998 53.277C183.653 53.277 181.518 55.1299 179.595 58.8357C177.672 62.4946 176.71 66.1769 176.71 69.8827C176.71 72.6034 177.132 74.7142 177.977 76.2153C178.868 77.7164 179.97 78.4669 181.284 78.4669C183.629 78.4669 185.693 76.6375 187.476 72.9786C189.305 69.2728 190.22 65.5436 190.22 61.7909C190.22 59.0233 189.845 56.9124 189.094 55.4583C188.344 54.0041 187.312 53.277 185.998 53.277ZM186.843 50.3921C189.61 50.3921 191.744 51.3538 193.246 53.277C194.794 55.2003 195.568 57.8506 195.568 61.228C195.568 66.0596 193.855 70.6332 190.431 74.9488C187.054 79.2175 183.582 81.3518 180.017 81.3518C177.203 81.3518 175.045 80.4371 173.544 78.6077C172.09 76.7782 171.363 74.1748 171.363 70.7974C171.363 65.9189 173.051 61.2984 176.429 56.9359C179.806 52.5734 183.277 50.3921 186.843 50.3921Z" fill="#454545"/>
<path d="M120 59.5L129.5 69L145 40.5" stroke="white" stroke-width="8"/>
</svg>
